<svg width="21" height="20" viewBox="0 0 21 20" fill="none" xmlns="http://www.w3.org/2000/svg">
<path d="M9.73511 19.2201C8.90177 19.2201 8.19344 18.8934 7.61011 18.2401C7.02677 17.5867 6.73511 16.7934 6.73511 15.8601H8.73511C8.73511 16.1774 8.83094 16.4434 9.02261 16.6581C9.21427 16.8727 9.45177 16.9801 9.73511 16.9801C10.0184 16.9801 10.2559 16.8727 10.4476 16.6581C10.6393 16.4434 10.7351 16.1774 10.7351 15.8601C10.7351 15.5427 10.6393 15.2767 10.4476 15.0621C10.2559 14.8474 10.0184 14.7401 9.73511 14.7401H0.235107V12.5001H9.73511C10.5684 12.5001 11.2768 12.8267 11.8601 13.4801C12.4434 14.1334 12.7351 14.9267 12.7351 15.8601C12.7351 16.7934 12.4434 17.5867 11.8601 18.2401C11.2768 18.8934 10.5684 19.2201 9.73511 19.2201ZM0.235107 8.02005V5.78005H13.7351C14.1684 5.78005 14.5268 5.62139 14.8101 5.30405C15.0934 4.98672 15.2351 4.58539 15.2351 4.10005C15.2351 3.61472 15.0934 3.21339 14.8101 2.89605C14.5268 2.57872 14.1684 2.42005 13.7351 2.42005C13.3018 2.42005 12.9434 2.57872 12.6601 2.89605C12.3768 3.21339 12.2351 3.61472 12.2351 4.10005H10.2351C10.2351 2.99872 10.5726 2.07005 11.2476 1.31405C11.9226 0.558054 12.7518 0.180054 13.7351 0.180054C14.7184 0.180054 15.5476 0.558054 16.2226 1.31405C16.8976 2.07005 17.2351 2.99872 17.2351 4.10005C17.2351 5.20139 16.8976 6.13005 16.2226 6.88605C15.5476 7.64205 14.7184 8.02005 13.7351 8.02005H0.235107ZM16.7351 16.9801V14.7401C17.1684 14.7401 17.5268 14.5814 17.8101 14.2641C18.0934 13.9467 18.2351 13.5454 18.2351 13.0601C18.2351 12.5747 18.0934 12.1734 17.8101 11.8561C17.5268 11.5387 17.1684 11.3801 16.7351 11.3801H0.235107V9.14005H16.7351C17.7184 9.14005 18.5476 9.51805 19.2226 10.2741C19.8976 11.0301 20.2351 11.9587 20.2351 13.0601C20.2351 14.1614 19.8976 15.0901 19.2226 15.8461C18.5476 16.6021 17.7184 16.9801 16.7351 16.9801Z" fill="white"/>
</svg>
