<svg width="201" height="200" viewBox="0 0 201 200" fill="none" xmlns="http://www.w3.org/2000/svg">
<mask id="path-1-inside-1_613_212" fill="white">
<path d="M200.5 100C200.5 155.229 155.728 200 100.5 200C45.2715 200 0.5 155.229 0.5 100C0.5 44.7716 45.2715 0.00012207 100.5 0.00012207C155.728 0.00012207 200.5 44.7716 200.5 100ZM20.5 100C20.5 144.183 56.3172 180 100.5 180C144.683 180 180.5 144.183 180.5 100C180.5 55.8173 144.683 20.0001 100.5 20.0001C56.3172 20.0001 20.5 55.8173 20.5 100Z"/>
</mask>
<path d="M200.5 100C200.5 155.229 155.728 200 100.5 200C45.2715 200 0.5 155.229 0.5 100C0.5 44.7716 45.2715 0.00012207 100.5 0.00012207C155.728 0.00012207 200.5 44.7716 200.5 100ZM20.5 100C20.5 144.183 56.3172 180 100.5 180C144.683 180 180.5 144.183 180.5 100C180.5 55.8173 144.683 20.0001 100.5 20.0001C56.3172 20.0001 20.5 55.8173 20.5 100Z" stroke="url(#paint0_linear_613_212)" stroke-width="2" mask="url(#path-1-inside-1_613_212)"/>
<path d="M14.9049 127.812C9.65238 129.518 3.95815 126.649 2.78441 121.252C0.153091 109.154 -0.214743 96.6425 1.73117 84.3566C4.19986 68.7698 10.3224 53.9886 19.5983 41.2215C28.8742 28.4543 41.0399 18.0638 55.1009 10.8993C66.1843 5.2521 78.1971 1.73566 90.5165 0.499579C96.0118 -0.0517943 100.5 4.47715 100.5 10C100.5 15.5228 96.0056 19.9356 90.5259 20.6242C81.3669 21.7751 72.4504 24.5059 64.1808 28.7195C52.932 34.451 43.1993 42.7635 35.7786 52.9772C28.358 63.1909 23.4599 75.0158 21.4849 87.4852C20.033 96.6522 20.1912 105.976 21.9269 115.043C22.9654 120.467 20.1575 126.105 14.9049 127.812Z" fill="url(#paint1_radial_613_212)"/>
<defs>
<linearGradient id="paint0_linear_613_212" x1="0.500004" y1="171.459" x2="235.1" y2="152.836" gradientUnits="userSpaceOnUse">
<stop stop-color="#4D5359" stop-opacity="0"/>
<stop offset="1" stop-color="#A2CEE1"/>
</linearGradient>
<radialGradient id="paint1_radial_613_212" cx="0" cy="0" r="1" gradientUnits="userSpaceOnUse" gradientTransform="translate(40.3931 46.9322) rotate(50.9162) scale(197.195)">
<stop stop-color="#FFE271"/>
<stop offset="0.232364" stop-color="#FFBD3E"/>
<stop offset="0.514629" stop-color="#FF9101"/>
<stop offset="0.727745" stop-color="#FFAC27"/>
<stop offset="0.847509" stop-color="#FFBE3F"/>
<stop offset="1" stop-color="#FFD45E"/>
</radialGradient>
</defs>
</svg>
