<svg width="27" height="37" viewBox="0 0 27 37" fill="none" xmlns="http://www.w3.org/2000/svg">
<path d="M13.6158 36.6629C10.411 36.6629 7.79576 36.1565 5.77007 35.1437C3.74438 34.1308 2.73153 32.8232 2.73153 31.2208C2.73153 30.4952 2.95073 29.8224 3.38913 29.2026C3.82752 28.5828 4.43976 28.0462 5.22585 27.5927L8.08299 30.2684C7.81088 30.3893 7.51609 30.5254 7.19864 30.6766C6.88118 30.8277 6.63174 31.0091 6.45034 31.2208C6.84338 31.7045 7.75041 32.1278 9.17142 32.4906C10.5924 32.8534 12.0739 33.0348 13.6158 33.0348C15.1578 33.0348 16.6468 32.8534 18.0829 32.4906C19.5191 32.1278 20.4337 31.7045 20.8267 31.2208C20.6151 30.9789 20.343 30.7824 20.0104 30.6312C19.6778 30.48 19.3603 30.344 19.058 30.2231L21.8698 27.502C22.7163 27.9857 23.3664 28.5375 23.8199 29.1573C24.2734 29.7771 24.5002 30.4649 24.5002 31.2208C24.5002 32.8232 23.4873 34.1308 21.4616 35.1437C19.4359 36.1565 16.8207 36.6629 13.6158 36.6629ZM13.6612 26.6856C16.6544 24.4786 18.9068 22.2639 20.4185 20.0417C21.9303 17.8195 22.6861 15.5897 22.6861 13.3524C22.6861 10.2685 21.7035 7.94045 19.7383 6.36827C17.773 4.79609 15.7322 4.01 13.6158 4.01C11.4995 4.01 9.45864 4.79609 7.49342 6.36827C5.5282 7.94045 4.54558 10.2685 4.54558 13.3524C4.54558 15.3781 5.28632 17.4869 6.7678 19.6789C8.24927 21.8709 10.5471 24.2064 13.6612 26.6856ZM13.6158 31.2208C9.35282 28.0764 6.17067 25.0228 4.0694 22.0598C1.96812 19.0969 0.91748 16.1944 0.91748 13.3524C0.91748 11.2057 1.30297 9.32366 2.07394 7.70613C2.84491 6.0886 3.83508 4.73562 5.04445 3.64719C6.25382 2.55876 7.61436 1.74244 9.12607 1.19822C10.6378 0.654005 12.1344 0.381897 13.6158 0.381897C15.0973 0.381897 16.5939 0.654005 18.1056 1.19822C19.6173 1.74244 20.9779 2.55876 22.1872 3.64719C23.3966 4.73562 24.3868 6.0886 25.1578 7.70613C25.9287 9.32366 26.3142 11.2057 26.3142 13.3524C26.3142 16.1944 25.2636 19.0969 23.1623 22.0598C21.061 25.0228 17.8789 28.0764 13.6158 31.2208ZM13.6158 16.7084C14.6136 16.7084 15.4677 16.3531 16.1782 15.6426C16.8887 14.9321 17.2439 14.078 17.2439 13.0803C17.2439 12.0825 16.8887 11.2284 16.1782 10.5179C15.4677 9.80741 14.6136 9.45216 13.6158 9.45216C12.6181 9.45216 11.764 9.80741 11.0535 10.5179C10.343 11.2284 9.98774 12.0825 9.98774 13.0803C9.98774 14.078 10.343 14.9321 11.0535 15.6426C11.764 16.3531 12.6181 16.7084 13.6158 16.7084Z" fill="#1C1B1F"/>
</svg>
