<svg width="50" height="70" viewBox="0 0 50 70" fill="none" xmlns="http://www.w3.org/2000/svg">
<g opacity="0.5">
<path d="M8.17472 40.517C8.17472 43.71 8.87856 46.7341 10.2862 49.5894C11.6939 52.4447 13.7049 54.9469 16.3191 57.096C16.2521 56.789 16.2186 56.5127 16.2186 56.267V55.4381C16.2186 53.4732 16.6208 51.6311 17.4252 49.9118C18.2295 48.1925 19.4026 46.6267 20.9443 45.2144L32.3063 34.9907L43.6682 45.2144C45.21 46.6267 46.383 48.1925 47.1874 49.9118C47.9918 51.6311 48.394 53.4732 48.394 55.4381V56.267C48.394 56.5127 48.3605 56.789 48.2935 57.096C50.9077 54.9469 52.9187 52.4447 54.3264 49.5894C55.734 46.7341 56.4379 43.71 56.4379 40.517C56.4379 37.4469 55.8178 34.5455 54.5777 31.8131C53.3376 29.0806 51.5445 26.6398 49.1984 24.4907C47.8578 25.289 46.4501 25.8877 44.9754 26.2868C43.5007 26.6859 41.9924 26.8855 40.4507 26.8855C36.2947 26.8855 32.6917 25.6267 29.6418 23.1091C26.5918 20.5916 24.8322 17.4907 24.363 13.8065C21.7487 15.8328 19.4361 17.9359 17.4252 20.1157C15.4142 22.2955 13.7216 24.5061 12.3475 26.7473C10.9733 28.9885 9.93431 31.2758 9.23048 33.6091C8.52664 35.9425 8.17472 38.2451 8.17472 40.517ZM32.3063 45.3065L26.575 50.4644C25.8377 51.1398 25.2679 51.9074 24.8657 52.767C24.4635 53.6267 24.2624 54.517 24.2624 55.4381C24.2624 57.403 25.0501 59.0916 26.6253 60.5039C28.2006 61.9162 30.0942 62.6223 32.3063 62.6223C34.5184 62.6223 36.412 61.9162 37.9873 60.5039C39.5625 59.0916 40.3502 57.403 40.3502 55.4381C40.3502 54.4556 40.1491 53.5499 39.7469 52.721C39.3447 51.892 38.7749 51.1398 38.0375 50.4644L32.3063 45.3065ZM32.3063 -0.00927734V12.1486C32.3063 14.2363 33.0939 15.9863 34.6692 17.3986C36.2444 18.8109 38.1716 19.517 40.4507 19.517C41.6573 19.517 42.7801 19.2868 43.8191 18.8263C44.8581 18.3657 45.7798 17.6749 46.5841 16.7539L48.394 14.7276C53.3544 17.3065 57.2758 20.8986 60.1582 25.5039C63.0405 30.1091 64.4817 35.1135 64.4817 40.517C64.4817 48.7451 61.3647 55.7144 55.1307 61.4249C48.8968 67.1355 41.2886 69.9907 32.3063 69.9907C23.324 69.9907 15.7158 67.1355 9.48185 61.4249C3.24785 55.7144 0.130859 48.7451 0.130859 40.517C0.130859 32.596 3.03 25.0741 8.82828 17.9512C14.6266 10.8284 22.4526 4.8416 32.3063 -0.00927734ZM72.5256 29.4644C71.386 29.4644 70.4308 29.1113 69.66 28.4052C68.8891 27.6991 68.5037 26.8241 68.5037 25.7802C68.5037 24.7363 68.8891 23.8613 69.66 23.1552C70.4308 22.4491 71.386 22.096 72.5256 22.096C73.6651 22.096 74.6203 22.4491 75.3912 23.1552C76.1621 23.8613 76.5475 24.7363 76.5475 25.7802C76.5475 26.8241 76.1621 27.6991 75.3912 28.4052C74.6203 29.1113 73.6651 29.4644 72.5256 29.4644ZM68.5037 18.4118V-0.00927734H76.5475V18.4118H68.5037Z" fill="url(#paint0_radial_626_676)"/>
<path d="M8.17472 40.517C8.17472 43.71 8.87856 46.7341 10.2862 49.5894C11.6939 52.4447 13.7049 54.9469 16.3191 57.096C16.2521 56.789 16.2186 56.5127 16.2186 56.267V55.4381C16.2186 53.4732 16.6208 51.6311 17.4252 49.9118C18.2295 48.1925 19.4026 46.6267 20.9443 45.2144L32.3063 34.9907L43.6682 45.2144C45.21 46.6267 46.383 48.1925 47.1874 49.9118C47.9918 51.6311 48.394 53.4732 48.394 55.4381V56.267C48.394 56.5127 48.3605 56.789 48.2935 57.096C50.9077 54.9469 52.9187 52.4447 54.3264 49.5894C55.734 46.7341 56.4379 43.71 56.4379 40.517C56.4379 37.4469 55.8178 34.5455 54.5777 31.8131C53.3376 29.0806 51.5445 26.6398 49.1984 24.4907C47.8578 25.289 46.4501 25.8877 44.9754 26.2868C43.5007 26.6859 41.9924 26.8855 40.4507 26.8855C36.2947 26.8855 32.6917 25.6267 29.6418 23.1091C26.5918 20.5916 24.8322 17.4907 24.363 13.8065C21.7487 15.8328 19.4361 17.9359 17.4252 20.1157C15.4142 22.2955 13.7216 24.5061 12.3475 26.7473C10.9733 28.9885 9.93431 31.2758 9.23048 33.6091C8.52664 35.9425 8.17472 38.2451 8.17472 40.517Z" fill="url(#paint1_radial_626_676)"/>
<path d="M32.3063 45.3065L26.575 50.4644C25.8377 51.1398 25.2679 51.9074 24.8657 52.767C24.4635 53.6267 24.2624 54.517 24.2624 55.4381C24.2624 57.403 25.0501 59.0916 26.6253 60.5039C28.2006 61.9162 30.0942 62.6223 32.3063 62.6223C34.5184 62.6223 36.412 61.9162 37.9873 60.5039C39.5625 59.0916 40.3502 57.403 40.3502 55.4381C40.3502 54.4556 40.1491 53.5499 39.7469 52.721C39.3447 51.892 38.7749 51.1398 38.0375 50.4644L32.3063 45.3065Z" fill="url(#paint2_radial_626_676)"/>
</g>
<defs>
<radialGradient id="paint0_radial_626_676" cx="0" cy="0" r="1" gradientUnits="userSpaceOnUse" gradientTransform="translate(15.3734 16.417) rotate(48.4379) scale(71.6 72.6283)">
<stop stop-color="#FFE271"/>
<stop offset="0.25" stop-color="#FF8F3E"/>
<stop offset="0.5" stop-color="#FF5C01"/>
<stop offset="0.75" stop-color="#FF3F6D"/>
<stop offset="1" stop-color="#FFD45E"/>
</radialGradient>
<radialGradient id="paint1_radial_626_676" cx="0" cy="0" r="1" gradientUnits="userSpaceOnUse" gradientTransform="translate(15.3734 16.417) rotate(48.4379) scale(71.6 72.6283)">
<stop stop-color="#FFE271"/>
<stop offset="0.25" stop-color="#FF8F3E"/>
<stop offset="0.5" stop-color="#FF5C01"/>
<stop offset="0.75" stop-color="#FF3F6D"/>
<stop offset="1" stop-color="#FFD45E"/>
</radialGradient>
<radialGradient id="paint2_radial_626_676" cx="0" cy="0" r="1" gradientUnits="userSpaceOnUse" gradientTransform="translate(15.3734 16.417) rotate(48.4379) scale(71.6 72.6283)">
<stop stop-color="#FFE271"/>
<stop offset="0.25" stop-color="#FF8F3E"/>
<stop offset="0.5" stop-color="#FF5C01"/>
<stop offset="0.75" stop-color="#FF3F6D"/>
<stop offset="1" stop-color="#FFD45E"/>
</radialGradient>
</defs>
</svg>
