<svg width="96" height="88" viewBox="0 0 96 88" fill="none" xmlns="http://www.w3.org/2000/svg">
<g filter="url(#filter0_i_603_382)">
<path fill-rule="evenodd" clip-rule="evenodd" d="M27.5308 75.2517H34.3792C35.279 75.2517 36.1362 75.5798 36.7715 76.1618C37.4069 76.7439 37.7651 77.529 37.7651 78.3532V78.361C37.7651 80.0719 36.2513 81.4626 34.3792 81.4626H3.65096C1.76609 81.4626 0.239502 82.861 0.239502 84.5876C0.239502 86.3103 1.76609 87.7126 3.65096 87.7126H34.3792C40.0167 87.7126 44.588 83.5251 44.588 78.361V78.3532C44.588 75.8688 43.5134 73.4938 41.5987 71.7399C39.684 69.986 37.0913 69.0016 34.3792 69.0016H27.5307C25.6459 69.0016 24.1193 70.4 24.1193 72.1266C24.1193 73.8532 25.6459 75.2517 27.5308 75.2517ZM68.4687 56.5015H3.651C1.76613 56.5015 0.239546 57.8999 0.239546 59.6265C0.239546 61.3531 1.76613 62.7515 3.651 62.7515H68.4687C70.3536 62.7515 71.8802 61.3531 71.8802 59.6265C71.8802 57.8999 70.3536 56.5015 68.4687 56.5015ZM68.4687 44.0015H48C46.1151 44.0015 44.5885 45.3999 44.5885 47.1265C44.5885 48.8531 46.1151 50.2515 48 50.2515H68.4687C70.3536 50.2515 71.8802 48.8531 71.8802 47.1265C71.8802 45.3999 70.3536 44.0015 68.4687 44.0015ZM88.9375 31.5015H71.8802C69.9953 31.5015 68.4687 32.8999 68.4687 34.6265C68.4687 36.3531 69.9953 37.7515 71.8802 37.7515H88.9375C90.8223 37.7515 92.3489 36.3531 92.3489 34.6265C92.3489 32.8999 90.8223 31.5015 88.9375 31.5015ZM88.9375 12.7515C88.9375 14.4077 88.2168 15.9976 86.9375 17.1695C85.6583 18.3414 83.9227 19.0015 82.1145 19.0015H27.5312C25.6463 19.0015 24.1198 20.3999 24.1198 22.1265C24.1198 23.8531 25.6463 25.2515 27.5312 25.2515H82.1145C85.7349 25.2515 89.2019 23.9351 91.7604 21.5874C94.3233 19.2436 95.7604 16.0679 95.7604 12.7515C95.7604 9.43506 94.3233 6.25926 91.7604 3.91557C89.2018 1.56786 85.7349 0.251465 82.1145 0.251465H68.4687C66.5838 0.251465 65.0573 1.64986 65.0573 3.37646C65.0573 5.10306 66.5838 6.50146 68.4687 6.50146H82.1145C83.9226 6.50146 85.6582 7.16163 86.9375 8.33347C88.2169 9.50531 88.9375 11.0952 88.9375 12.7515Z" fill="url(#paint0_linear_603_382)"/>
</g>
<g filter="url(#filter1_i_603_382)">
<path d="M63.1896 69.5994C63.4199 69.4587 63.6715 69.3455 63.9401 69.2595C69.3427 67.4822 73.3555 67.7399 76.2083 69.1618C79.2104 70.6579 81.236 73.5524 82.0547 77.7907C82.1059 78.0368 82.123 78.2829 82.1102 78.5251V78.5407C82.0803 79.0564 81.9098 79.5525 81.6283 79.9821C81.3469 80.4157 80.9503 80.7868 80.4642 81.0564L80.4514 81.0603C80.2254 81.1853 79.978 81.2868 79.7179 81.361C75.0785 82.7478 71.2449 82.6735 68.3111 81.404C65.2152 80.0642 62.8613 77.3767 61.7398 72.9509C61.6716 72.697 61.6417 72.447 61.646 72.1931V72.1814C61.6545 71.6619 61.7995 71.1619 62.0639 70.7205V70.7127C62.3282 70.2751 62.7078 69.8884 63.1768 69.6033L63.1896 69.5994Z" fill="url(#paint1_radial_603_382)"/>
<path d="M12.4738 28.873C12.7253 28.7675 12.9983 28.6894 13.284 28.6425C21.2374 27.2714 27.1478 28.4118 31.1818 31.4821C35.1902 34.5411 37.5356 39.6893 37.7659 47.0331C37.7744 47.3339 37.7403 47.6191 37.6593 47.8964L37.6508 47.9316C37.51 48.4159 37.2456 48.8534 36.8917 49.2128L36.8192 49.287C36.4524 49.6386 35.9962 49.912 35.4802 50.0761L35.4418 50.0878C35.1475 50.1815 34.8405 50.2362 34.5164 50.2479C27.6504 50.5448 22.0854 49.287 18.0301 46.4159C13.8938 43.4899 11.1816 38.8534 10.4908 32.0409C10.461 31.7753 10.4695 31.5097 10.5121 31.2558L10.5164 31.2284C10.6017 30.7128 10.832 30.2402 11.1646 29.8378C11.493 29.4355 11.9322 29.1035 12.4439 28.8847L12.4738 28.873Z" fill="url(#paint2_radial_603_382)"/>
<path d="M15.4296 3.97416C15.6599 3.83354 15.9115 3.72025 16.1802 3.63432C21.5827 1.85696 25.5955 2.11474 28.4483 3.53664C31.4504 5.03274 33.476 7.92725 34.2948 12.1655C34.3459 12.4116 34.363 12.6577 34.3502 12.8999V12.9155C34.3203 13.4312 34.1498 13.9273 33.8683 14.3569C33.5869 14.7905 33.1903 15.1616 32.7042 15.4311L32.6914 15.4351C32.4654 15.5601 32.218 15.6616 31.9579 15.7358C27.3186 17.1226 23.485 17.0483 20.5511 15.7788C17.4552 14.439 15.1013 11.7515 13.9798 7.3257C13.9116 7.0718 13.8817 6.8218 13.886 6.56789V6.55617C13.8945 6.03668 14.0395 5.53668 14.3039 5.09527V5.08746C14.5683 4.64994 14.9478 4.26322 15.4169 3.97806L15.4296 3.97416Z" fill="url(#paint3_radial_603_382)"/>
</g>
<defs>
<filter id="filter0_i_603_382" x="0.239502" y="0.251465" width="100.521" height="92.4612" filterUnits="userSpaceOnUse" color-interpolation-filters="sRGB">
<feFlood flood-opacity="0" result="BackgroundImageFix"/>
<feBlend mode="normal" in="SourceGraphic" in2="BackgroundImageFix" result="shape"/>
<feColorMatrix in="SourceAlpha" type="matrix" values="0 0 0 0 0 0 0 0 0 0 0 0 0 0 0 0 0 0 127 0" result="hardAlpha"/>
<feOffset dx="5" dy="5"/>
<feGaussianBlur stdDeviation="5"/>
<feComposite in2="hardAlpha" operator="arithmetic" k2="-1" k3="1"/>
<feColorMatrix type="matrix" values="0 0 0 0 0.0800001 0 0 0 0 0.724 0 0 0 0 1 0 0 0 0.2 0"/>
<feBlend mode="normal" in2="shape" result="effect1_innerShadow_603_382"/>
</filter>
<filter id="filter1_i_603_382" x="10.4731" y="2.38501" width="76.6411" height="84.9937" filterUnits="userSpaceOnUse" color-interpolation-filters="sRGB">
<feFlood flood-opacity="0" result="BackgroundImageFix"/>
<feBlend mode="normal" in="SourceGraphic" in2="BackgroundImageFix" result="shape"/>
<feColorMatrix in="SourceAlpha" type="matrix" values="0 0 0 0 0 0 0 0 0 0 0 0 0 0 0 0 0 0 127 0" result="hardAlpha"/>
<feOffset dx="5" dy="5"/>
<feGaussianBlur stdDeviation="5"/>
<feComposite in2="hardAlpha" operator="arithmetic" k2="-1" k3="1"/>
<feColorMatrix type="matrix" values="0 0 0 0 0 0 0 0 0 0.6273 0 0 0 0 0.765 0 0 0 0.2 0"/>
<feBlend mode="normal" in2="shape" result="effect1_innerShadow_603_382"/>
</filter>
<linearGradient id="paint0_linear_603_382" x1="79.0539" y1="1.91261" x2="13.446" y2="94.9769" gradientUnits="userSpaceOnUse">
<stop stop-color="#4ACFF9"/>
<stop offset="1" stop-color="#B4DCFF"/>
</linearGradient>
<radialGradient id="paint1_radial_603_382" cx="0" cy="0" r="1" gradientUnits="userSpaceOnUse" gradientTransform="translate(46.2937 42.3818) rotate(90) scale(39.9968 35.8206)">
<stop stop-color="#FFF61F"/>
<stop offset="0.505" stop-color="#97FF12"/>
<stop offset="1" stop-color="#0EAD00"/>
</radialGradient>
<radialGradient id="paint2_radial_603_382" cx="0" cy="0" r="1" gradientUnits="userSpaceOnUse" gradientTransform="translate(46.2937 42.3818) rotate(90) scale(39.9968 35.8206)">
<stop stop-color="#FFF61F"/>
<stop offset="0.505" stop-color="#97FF12"/>
<stop offset="1" stop-color="#0EAD00"/>
</radialGradient>
<radialGradient id="paint3_radial_603_382" cx="0" cy="0" r="1" gradientUnits="userSpaceOnUse" gradientTransform="translate(46.2937 42.3818) rotate(90) scale(39.9968 35.8206)">
<stop stop-color="#FFF61F"/>
<stop offset="0.505" stop-color="#97FF12"/>
<stop offset="1" stop-color="#0EAD00"/>
</radialGradient>
</defs>
</svg>
