<svg width="81" height="79" viewBox="0 0 81 79" fill="none" xmlns="http://www.w3.org/2000/svg">
<g filter="url(#filter0_i_764_2)">
<path d="M20.9753 57.4202C15.6369 57.4202 11.0758 55.5723 7.29194 51.8765C3.50812 48.1807 1.61621 43.6635 1.61621 38.3251C1.61621 33.7494 2.99481 29.6722 5.75201 26.0937C8.50922 22.5152 12.117 20.2273 16.5755 19.23C18.0421 13.833 20.9753 9.46251 25.3751 6.11867C29.7749 2.77483 34.7613 1.10291 40.3344 1.10291C47.198 1.10291 53.0204 3.49346 57.8015 8.27456C62.5826 13.0557 64.9732 18.8781 64.9732 25.7417C69.021 26.211 72.3795 27.9563 75.0487 30.9775C77.7179 33.9987 79.0525 37.5332 79.0525 41.581C79.0525 45.9808 77.5126 49.7206 74.4327 52.8004C71.3529 55.8803 67.6131 57.4202 63.2133 57.4202H20.9753ZM20.9753 50.3806H63.2133C65.6772 50.3806 67.7597 49.5299 69.461 47.8287C71.1622 46.1274 72.0128 44.0449 72.0128 41.581C72.0128 39.1171 71.1622 37.0345 69.461 35.3333C67.7597 33.632 65.6772 32.7814 63.2133 32.7814H57.9335V25.7417C57.9335 20.8726 56.2176 16.7222 52.7858 13.2903C49.3539 9.85849 45.2035 8.14257 40.3344 8.14257C35.4653 8.14257 31.3148 9.85849 27.883 13.2903C24.4511 16.7222 22.7352 20.8726 22.7352 25.7417H20.9753C17.5728 25.7417 14.6689 26.9443 12.2637 29.3496C9.85849 31.7548 8.65588 34.6586 8.65588 38.0611C8.65588 41.4636 9.85849 44.3675 12.2637 46.7727C14.6689 49.178 17.5728 50.3806 20.9753 50.3806Z" fill="url(#paint0_linear_764_2)"/>
<path d="M20.9753 50.3806H63.2133C65.6772 50.3806 67.7597 49.5299 69.461 47.8287C71.1622 46.1274 72.0128 44.0449 72.0128 41.581C72.0128 39.1171 71.1622 37.0345 69.461 35.3333C67.7597 33.632 65.6772 32.7814 63.2133 32.7814H57.9335V25.7417C57.9335 20.8726 56.2176 16.7222 52.7858 13.2903C49.3539 9.85849 45.2035 8.14257 40.3344 8.14257C35.4653 8.14257 31.3148 9.85849 27.883 13.2903C24.4511 16.7222 22.7352 20.8726 22.7352 25.7417H20.9753C17.5728 25.7417 14.6689 26.9443 12.2637 29.3496C9.85849 31.7548 8.65588 34.6586 8.65588 38.0611C8.65588 41.4636 9.85849 44.3675 12.2637 46.7727C14.6689 49.178 17.5728 50.3806 20.9753 50.3806Z" fill="url(#paint1_linear_764_2)"/>
</g>
<path d="M6.94257 52.2342C10.8208 56.0222 15.5077 57.9202 20.9753 57.9202H63.2133C67.7442 57.9202 71.6116 56.3287 74.7863 53.154C77.961 49.9793 79.5525 46.1119 79.5525 41.581C79.5525 37.4118 78.1737 33.7594 75.4234 30.6464C72.7688 27.6417 69.444 25.8574 65.4699 25.3012C65.3693 18.4975 62.9288 12.6948 58.1551 7.92101C53.2786 3.04456 47.3284 0.602905 40.3344 0.602905C34.653 0.602905 29.5601 2.31002 25.0725 5.72059C20.6627 9.07204 17.6939 13.4402 16.1732 18.8098C11.7364 19.8661 8.12464 22.1951 5.35594 25.7885C2.53042 29.4557 1.11621 33.6405 1.11621 38.3251C1.11621 43.7968 3.06142 48.4433 6.94257 52.2342Z" stroke="url(#paint2_linear_764_2)"/>
<path d="M25.1446 67.9365C24.7645 68.1392 24.3782 68.1709 23.9855 68.0315C23.5929 67.8922 23.2952 67.6325 23.0925 67.2525L19.2925 59.6524C19.0898 59.2724 19.0581 58.886 19.1975 58.4934C19.3368 58.1007 19.5965 57.803 19.9765 57.6004C20.3565 57.3977 20.7428 57.366 21.1355 57.5054C21.5282 57.6447 21.8258 57.9044 22.0285 58.2844L25.8286 65.8845C26.0312 66.2645 26.0629 66.6508 25.9236 67.0435C25.7842 67.4362 25.5246 67.7339 25.1446 67.9365ZM30.4646 78.5767C30.0846 78.7794 29.6983 78.811 29.3056 78.6717C28.913 78.5324 28.6153 78.2727 28.4126 77.8927L25.3726 71.8126C25.1699 71.4326 25.1382 71.0462 25.2776 70.6536C25.4169 70.2609 25.6766 69.9632 26.0566 69.7606C26.4366 69.5579 26.8229 69.5262 27.2156 69.6656C27.6083 69.8049 27.9059 70.0646 28.1086 70.4446L31.1487 76.5247C31.3513 76.9047 31.383 77.291 31.2437 77.6837C31.1043 78.0764 30.8446 78.374 30.4646 78.5767ZM33.5807 70.9766C33.2007 71.1792 32.8143 71.2109 32.4217 71.0716C32.029 70.9322 31.7313 70.6726 31.5287 70.2926L26.2086 59.6524C26.0059 59.2724 25.9742 58.886 26.1136 58.4934C26.2529 58.1007 26.5126 57.803 26.8926 57.6004C27.2726 57.3977 27.6589 57.366 28.0516 57.5054C28.4443 57.6447 28.7419 57.9044 28.9446 58.2844L34.2647 68.9245C34.4674 69.3046 34.499 69.6909 34.3597 70.0836C34.2204 70.4762 33.9607 70.7739 33.5807 70.9766ZM36.8487 63.3765C36.4687 63.5791 36.0824 63.6108 35.6897 63.4715C35.2971 63.3321 34.9994 63.0724 34.7967 62.6924L33.3147 59.6524C33.112 59.2724 33.0804 58.886 33.2197 58.4934C33.359 58.1007 33.6187 57.803 33.9987 57.6004C34.3787 57.3977 34.7587 57.366 35.1387 57.5054C35.5187 57.6447 35.8101 57.9044 36.0127 58.2844L37.5328 61.3244C37.7354 61.7044 37.7671 62.0908 37.6278 62.4834C37.4884 62.8761 37.2288 63.1738 36.8487 63.3765ZM37.7608 78.5387C37.3808 78.7414 36.9944 78.7794 36.6017 78.6527C36.2091 78.526 35.9114 78.2727 35.7087 77.8927L34.1887 74.8526C33.986 74.4726 33.9544 74.0863 34.0937 73.6936C34.233 73.301 34.4927 73.0033 34.8727 72.8006C35.2527 72.5979 35.6391 72.5663 36.0317 72.7056C36.4244 72.8449 36.7221 73.1046 36.9248 73.4846L38.4448 76.5247C38.6474 76.9047 38.6791 77.2847 38.5398 77.6647C38.4004 78.0447 38.1408 78.336 37.7608 78.5387ZM44.8289 78.5387C44.4489 78.7414 44.0625 78.7794 43.6699 78.6527C43.2772 78.526 42.9795 78.2727 42.7768 77.8927L37.4568 67.2525C37.2541 66.8725 37.2224 66.4862 37.3618 66.0935C37.5011 65.7008 37.7608 65.4032 38.1408 65.2005C38.5208 64.9978 38.9071 64.9661 39.2998 65.1055C39.6925 65.2448 39.9901 65.5045 40.1928 65.8845L45.5129 76.5247C45.7156 76.9047 45.7472 77.2847 45.6079 77.6647C45.4686 78.0447 45.2089 78.336 44.8289 78.5387ZM47.1849 69.4566C46.8049 69.6592 46.4186 69.6909 46.0259 69.5516C45.6332 69.4122 45.3356 69.1525 45.1329 68.7725L40.5728 59.6524C40.3701 59.2724 40.3385 58.886 40.4778 58.4934C40.6171 58.1007 40.8768 57.803 41.2568 57.6004C41.6368 57.3977 42.0232 57.366 42.4158 57.5054C42.8085 57.6447 43.1062 57.9044 43.3089 58.2844L47.8689 67.4045C48.0716 67.7845 48.1033 68.1709 47.9639 68.5635C47.8246 68.9562 47.5649 69.2539 47.1849 69.4566ZM51.745 78.5767C51.365 78.7794 50.9787 78.811 50.586 78.6717C50.1933 78.5324 49.8956 78.2727 49.693 77.8927L47.4129 73.3326C47.2103 72.9526 47.1786 72.5663 47.3179 72.1736C47.4573 71.7809 47.7169 71.4833 48.0969 71.2806C48.4769 71.0779 48.8633 71.0462 49.256 71.1856C49.6486 71.3249 49.9463 71.5846 50.149 71.9646L52.429 76.5247C52.6317 76.9047 52.6633 77.291 52.524 77.6837C52.3847 78.0764 52.125 78.374 51.745 78.5767Z" fill="url(#paint3_linear_764_2)"/>
<path d="M51.796 63.3764C51.416 63.5791 51.0296 63.6108 50.637 63.4714C50.2443 63.3321 49.9466 63.0724 49.744 62.6924L48.2619 59.6524C48.0593 59.2723 48.0276 58.886 48.1669 58.4933C48.3063 58.1007 48.5659 57.803 48.9459 57.6003C49.3259 57.3976 49.7059 57.366 50.086 57.5053C50.466 57.6447 50.7573 57.9043 50.96 58.2843L52.48 61.3244C52.6827 61.7044 52.7143 62.0907 52.575 62.4834C52.4357 62.8761 52.176 63.1737 51.796 63.3764ZM59.7761 78.5387C59.3961 78.7413 59.0098 78.7793 58.6171 78.6527C58.2244 78.526 57.9268 78.2727 57.7241 77.8927L52.404 67.2525C52.2013 66.8725 52.1697 66.4861 52.309 66.0935C52.4483 65.7008 52.708 65.4031 53.088 65.2004C53.468 64.9978 53.8544 64.9661 54.247 65.1054C54.6397 65.2448 54.9374 65.5044 55.14 65.8845L60.4601 76.5246C60.6628 76.9046 60.6945 77.2846 60.5551 77.6647C60.4158 78.0447 60.1561 78.336 59.7761 78.5387ZM62.1322 69.4565C61.7522 69.6592 61.3658 69.6909 60.9731 69.5515C60.5805 69.4122 60.2828 69.1525 60.0801 68.7725L55.52 59.6524C55.3174 59.2723 55.2857 58.886 55.425 58.4933C55.5644 58.1007 55.8241 57.803 56.2041 57.6003C56.5841 57.3976 56.9704 57.366 57.3631 57.5053C57.7558 57.6447 58.0534 57.9043 58.2561 58.2843L62.8162 67.4045C63.0188 67.7845 63.0505 68.1708 62.9112 68.5635C62.7718 68.9562 62.5122 69.2538 62.1322 69.4565ZM66.6922 78.5767C66.3122 78.7793 65.9259 78.811 65.5332 78.6717C65.1405 78.5323 64.8429 78.2727 64.6402 77.8927L62.3602 73.3326C62.1575 72.9526 62.1258 72.5662 62.2652 72.1736C62.4045 71.7809 62.6642 71.4832 63.0442 71.2805C63.4242 71.0779 63.8105 71.0462 64.2032 71.1855C64.5959 71.3249 64.8935 71.5845 65.0962 71.9646L67.3762 76.5246C67.5789 76.9046 67.6106 77.291 67.4712 77.6837C67.3319 78.0763 67.0722 78.374 66.6922 78.5767Z" fill="url(#paint4_linear_764_2)"/>
<defs>
<filter id="filter0_i_764_2" x="0.616211" y="0.102905" width="84.4363" height="63.3173" filterUnits="userSpaceOnUse" color-interpolation-filters="sRGB">
<feFlood flood-opacity="0" result="BackgroundImageFix"/>
<feBlend mode="normal" in="SourceGraphic" in2="BackgroundImageFix" result="shape"/>
<feColorMatrix in="SourceAlpha" type="matrix" values="0 0 0 0 0 0 0 0 0 0 0 0 0 0 0 0 0 0 127 0" result="hardAlpha"/>
<feOffset dx="5" dy="5"/>
<feGaussianBlur stdDeviation="5"/>
<feComposite in2="hardAlpha" operator="arithmetic" k2="-1" k3="1"/>
<feColorMatrix type="matrix" values="0 0 0 0 0.941176 0 0 0 0 0.980392 0 0 0 0 1 0 0 0 1 0"/>
<feBlend mode="normal" in2="shape" result="effect1_innerShadow_764_2"/>
</filter>
<linearGradient id="paint0_linear_764_2" x1="29.5179" y1="81.5489" x2="65.9859" y2="19.9839" gradientUnits="userSpaceOnUse">
<stop stop-color="#BED6EA"/>
<stop offset="0.333186" stop-color="#7FAABE"/>
<stop offset="1" stop-color="#63808D"/>
</linearGradient>
<linearGradient id="paint1_linear_764_2" x1="29.5179" y1="81.5489" x2="65.9859" y2="19.9839" gradientUnits="userSpaceOnUse">
<stop stop-color="#BED6EA"/>
<stop offset="0.333186" stop-color="#7FAABE"/>
<stop offset="1" stop-color="#63808D"/>
</linearGradient>
<linearGradient id="paint2_linear_764_2" x1="71.2724" y1="87.2866" x2="33.3092" y2="12.9214" gradientUnits="userSpaceOnUse">
<stop stop-color="#BED6EA"/>
<stop offset="0.333186" stop-color="#7FAABE"/>
<stop offset="1" stop-color="#63808D"/>
</linearGradient>
<linearGradient id="paint3_linear_764_2" x1="57.7248" y1="74.9483" x2="54.1252" y2="57.1306" gradientUnits="userSpaceOnUse">
<stop stop-color="#BED6EA"/>
<stop offset="1" stop-color="#63808D"/>
</linearGradient>
<linearGradient id="paint4_linear_764_2" x1="57.7248" y1="74.9483" x2="54.1252" y2="57.1306" gradientUnits="userSpaceOnUse">
<stop stop-color="#BED6EA"/>
<stop offset="1" stop-color="#63808D"/>
</linearGradient>
</defs>
</svg>
