<svg width="70" height="71" viewBox="0 0 70 71" fill="none" xmlns="http://www.w3.org/2000/svg">
<g filter="url(#filter0_bd_804_149)">
<g filter="url(#filter1_b_804_149)">
<circle cx="30" cy="30.5627" r="25" fill="white" fill-opacity="0.8"/>
</g>
<path d="M28.8889 31.6738V20.5627H31.1111V31.6738H28.8889ZM30 40.5627C28.6296 40.5627 27.338 40.2988 26.125 39.771C24.912 39.2432 23.8519 38.5256 22.9444 37.6182C22.037 36.7108 21.3194 35.6506 20.7917 34.4377C20.2639 33.2247 20 31.9331 20 30.5627C20 29.0812 20.3056 27.6831 20.9167 26.3682C21.5278 25.0534 22.3889 23.9145 23.5 22.9516L25.0556 24.5071C24.1667 25.2479 23.4722 26.146 22.9722 27.2016C22.4722 28.2571 22.2222 29.3775 22.2222 30.5627C22.2222 32.7108 22.9815 34.5442 24.5 36.0627C26.0185 37.5812 27.8519 38.3405 30 38.3405C32.1667 38.3405 34.0046 37.5812 35.5139 36.0627C37.0231 34.5442 37.7778 32.7108 37.7778 30.5627C37.7778 29.3775 37.5324 28.2571 37.0417 27.2016C36.5509 26.146 35.8519 25.2479 34.9444 24.5071L36.5 22.9516C37.6111 23.9145 38.4722 25.0534 39.0833 26.3682C39.6944 27.6831 40 29.0812 40 30.5627C40 31.9331 39.7361 33.2247 39.2083 34.4377C38.6806 35.6506 37.9676 36.7108 37.0694 37.6182C36.1713 38.5256 35.1157 39.2432 33.9028 39.771C32.6898 40.2988 31.3889 40.5627 30 40.5627Z" fill="#1C1B1F"/>
</g>
<defs>
<filter id="filter0_bd_804_149" x="-45" y="-44.4373" width="150" height="150" filterUnits="userSpaceOnUse" color-interpolation-filters="sRGB">
<feFlood flood-opacity="0" result="BackgroundImageFix"/>
<feGaussianBlur in="BackgroundImageFix" stdDeviation="25"/>
<feComposite in2="SourceAlpha" operator="in" result="effect1_backgroundBlur_804_149"/>
<feColorMatrix in="SourceAlpha" type="matrix" values="0 0 0 0 0 0 0 0 0 0 0 0 0 0 0 0 0 0 127 0" result="hardAlpha"/>
<feOffset dx="5" dy="5"/>
<feGaussianBlur stdDeviation="5"/>
<feComposite in2="hardAlpha" operator="out"/>
<feColorMatrix type="matrix" values="0 0 0 0 0 0 0 0 0 0 0 0 0 0 0 0 0 0 0.25 0"/>
<feBlend mode="normal" in2="effect1_backgroundBlur_804_149" result="effect2_dropShadow_804_149"/>
<feBlend mode="normal" in="SourceGraphic" in2="effect2_dropShadow_804_149" result="shape"/>
</filter>
<filter id="filter1_b_804_149" x="-45" y="-44.4373" width="150" height="150" filterUnits="userSpaceOnUse" color-interpolation-filters="sRGB">
<feFlood flood-opacity="0" result="BackgroundImageFix"/>
<feGaussianBlur in="BackgroundImageFix" stdDeviation="25"/>
<feComposite in2="SourceAlpha" operator="in" result="effect1_backgroundBlur_804_149"/>
<feBlend mode="normal" in="SourceGraphic" in2="effect1_backgroundBlur_804_149" result="shape"/>
</filter>
</defs>
</svg>
