<svg width="114" height="114" viewBox="0 0 114 114" fill="none" xmlns="http://www.w3.org/2000/svg">
<g filter="url(#filter0_i_603_259)">
<path d="M57.0001 21.3294C54.1684 21.3294 51.8728 19.0338 51.8728 16.202V5.94731C51.8728 3.11554 54.1684 0.819946 57.0001 0.819946C59.8319 0.819946 62.1275 3.11555 62.1275 5.94731V16.202C62.1275 19.0338 59.8319 21.3294 57.0001 21.3294ZM89.5181 31.8813C87.5584 33.841 84.3811 33.841 82.4214 31.8813C80.48 29.9399 80.4592 26.7987 82.3748 24.8318L89.6478 17.3639C91.6386 15.3198 94.9211 15.3126 96.9209 17.3481C98.8775 19.3396 98.8633 22.536 96.8892 24.5102L89.5181 31.8813ZM98.019 62.3483C95.1873 62.3483 92.8917 60.0527 92.8917 57.2209C92.8917 54.3892 95.1873 52.0936 98.019 52.0936H108.274C111.106 52.0936 113.401 54.3892 113.401 57.2209C113.401 60.0527 111.106 62.3483 108.274 62.3483H98.019ZM57.0001 113.622C54.1684 113.622 51.8728 111.326 51.8728 108.495V98.2399C51.8728 95.4081 54.1684 93.1125 57.0001 93.1125C59.8319 93.1125 62.1275 95.4081 62.1275 98.2399V108.495C62.1275 111.326 59.8319 113.622 57.0001 113.622ZM31.5305 31.7983C29.5799 33.6792 26.4884 33.6717 24.5469 31.7814L17.1438 24.573C15.0993 22.5824 15.092 19.2998 17.1275 17.3C19.1189 15.3435 22.3151 15.3576 24.2892 17.3317L31.5956 24.6381C33.5804 26.6229 33.5511 29.8499 31.5305 31.7983ZM96.864 96.9572C94.8331 99.0594 91.4638 99.0586 89.4339 96.9555L82.3191 89.5843C80.4319 87.6292 80.4594 84.5225 82.3808 82.6011C84.302 80.6799 87.4083 80.6522 89.3635 82.5388L96.7358 89.6524C98.7892 91.6338 98.8466 94.905 96.864 96.9572ZM5.72648 62.3483C2.89472 62.3483 0.599121 60.0527 0.599121 57.2209C0.599121 54.3892 2.89472 52.0936 5.72649 52.0936H15.9812C18.813 52.0936 21.1086 54.3892 21.1086 57.2209C21.1086 60.0527 18.813 62.3483 15.9812 62.3483H5.72648ZM24.3774 97.1501C22.3649 99.1626 19.0977 99.1481 17.1031 97.118C15.1333 95.113 15.1476 91.8952 17.135 89.9078L24.3109 82.7319C26.3148 80.728 29.5455 80.6703 31.6197 82.6014C33.6621 84.5734 33.6907 87.8369 31.6832 89.8444L24.3774 97.1501ZM57.0001 87.9851C48.4545 87.9851 41.1908 84.9942 35.2088 79.0122C29.2269 73.0303 26.2359 65.7666 26.2359 57.2209C26.2359 48.6753 29.2269 41.4116 35.2088 35.4296C41.1908 29.4477 48.4545 26.4568 57.0001 26.4568C65.5457 26.4568 72.8095 29.4477 78.7914 35.4296C84.7733 41.4116 87.7643 48.6753 87.7643 57.2209C87.7643 65.7666 84.7733 73.0303 78.7914 79.0122C72.8095 84.9942 65.5457 87.9851 57.0001 87.9851Z" fill="url(#paint0_radial_603_259)"/>
</g>
<path d="M57.0001 20.8294C54.4445 20.8294 52.3728 18.7577 52.3728 16.202V5.94731C52.3728 3.39169 54.4445 1.31995 57.0001 1.31995C59.5557 1.31995 61.6275 3.39169 61.6275 5.94731V16.202C61.6275 18.7577 59.5557 20.8294 57.0001 20.8294ZM89.1645 31.5277C87.4001 33.2922 84.5394 33.2922 82.7749 31.5277C81.0269 29.7798 81.0083 26.9516 82.733 25.1806L90.006 17.7128C91.8012 15.8696 94.761 15.8631 96.5642 17.6985C98.3285 19.4943 98.3158 22.3765 96.5356 24.1567L89.1645 31.5277ZM98.019 61.8483C95.4634 61.8483 93.3917 59.7766 93.3917 57.2209C93.3917 54.6653 95.4634 52.5936 98.019 52.5936H108.274C110.829 52.5936 112.901 54.6653 112.901 57.2209C112.901 59.7766 110.829 61.8483 108.274 61.8483H98.019ZM57.0001 113.122C54.4445 113.122 52.3728 111.05 52.3728 108.495V98.2399C52.3728 95.6842 54.4445 93.6125 57.0001 93.6125C59.5557 93.6125 61.6275 95.6842 61.6275 98.2399V108.495C61.6275 111.05 59.5557 113.122 57.0001 113.122ZM31.1834 31.4384C29.4272 33.1319 26.6437 33.1251 24.8957 31.4231L17.4926 24.2148C15.6491 22.4198 15.6425 19.4599 17.4779 17.6567C19.2736 15.8925 22.1556 15.9052 23.9356 17.6852L31.242 24.9917C33.0291 26.7787 33.0027 29.6841 31.1834 31.4384ZM96.5044 96.6098C94.6701 98.5085 91.627 98.5078 89.7936 96.6083L82.6788 89.2371C80.9811 87.4782 81.0058 84.6833 82.7344 82.9547C84.4628 81.2263 87.2573 81.2013 89.0163 82.8986L96.3886 90.0122C98.2432 91.8018 98.2951 94.7563 96.5044 96.6098ZM5.72648 61.8483C3.17086 61.8483 1.09912 59.7766 1.09912 57.2209C1.09912 54.6653 3.17086 52.5936 5.72649 52.5936H15.9812C18.5368 52.5936 20.6086 54.6653 20.6086 57.2209C20.6086 59.7766 18.5368 61.8483 15.9812 61.8483H5.72648ZM24.0239 96.7966C22.2079 98.6126 19.2596 98.5995 17.4598 96.7676C15.6823 94.9584 15.6952 92.0547 17.4886 90.2613L24.6644 83.0854C26.4769 81.273 29.3982 81.2197 31.2754 82.9641C33.1137 84.7421 33.1384 87.682 31.3296 89.4908L24.0239 96.7966ZM57.0001 87.4851C48.5856 87.4851 41.4495 84.5458 35.5624 78.6587C29.6753 72.7716 26.7359 65.6355 26.7359 57.2209C26.7359 48.8064 29.6753 41.6703 35.5624 35.7832C41.4495 29.8961 48.5856 26.9568 57.0001 26.9568C65.4146 26.9568 72.5508 29.8961 78.4379 35.7832C84.325 41.6703 87.2643 48.8064 87.2643 57.2209C87.2643 65.6355 84.325 72.7716 78.4379 78.6587C72.5508 84.5458 65.4146 87.4851 57.0001 87.4851Z" stroke="url(#paint1_linear_603_259)"/>
<g filter="url(#filter1_i_603_259)">
<path d="M20.7351 100.848C17.0299 100.848 13.8641 99.5658 11.2379 97.0007C8.6117 94.4355 7.29858 91.3003 7.29858 87.5951C7.29858 84.4192 8.25543 81.5894 10.1691 79.1057C12.0828 76.622 14.5869 75.034 17.6813 74.3418C18.6993 70.5959 20.7351 67.5625 23.7888 65.2417C26.8426 62.9208 30.3035 61.7604 34.1716 61.7604C38.9354 61.7604 42.9766 63.4196 46.295 66.738C49.6134 70.0564 51.2726 74.0975 51.2726 78.8614C54.082 79.1871 56.4131 80.3984 58.2657 82.4953C60.1183 84.5923 61.0446 87.0454 61.0446 89.8549C61.0446 92.9086 59.9758 95.5043 57.8382 97.6419C55.7005 99.7796 53.1048 100.848 50.0511 100.848H20.7351ZM20.7351 95.9624H50.0511C51.7612 95.9624 53.2066 95.372 54.3874 94.1912C55.5682 93.0104 56.1586 91.565 56.1586 89.8549C56.1586 88.1448 55.5682 86.6993 54.3874 85.5186C53.2066 84.3378 51.7612 83.7474 50.0511 83.7474H46.3866V78.8614C46.3866 75.4819 45.1956 72.6012 42.8137 70.2193C40.4318 67.8373 37.5511 66.6464 34.1716 66.6464C30.7921 66.6464 27.9114 67.8373 25.5295 70.2193C23.1476 72.6012 21.9566 75.4819 21.9566 78.8614H20.7351C18.3735 78.8614 16.358 79.6961 14.6887 81.3655C13.0193 83.0348 12.1846 85.0503 12.1846 87.4119C12.1846 89.7735 13.0193 91.7889 14.6887 93.4583C16.358 95.1277 18.3735 95.9624 20.7351 95.9624Z" fill="url(#paint2_linear_603_259)"/>
<path d="M20.7351 95.9624H50.0511C51.7612 95.9624 53.2066 95.372 54.3874 94.1912C55.5682 93.0104 56.1586 91.565 56.1586 89.8549C56.1586 88.1448 55.5682 86.6993 54.3874 85.5186C53.2066 84.3378 51.7612 83.7474 50.0511 83.7474H46.3866V78.8614C46.3866 75.4819 45.1956 72.6012 42.8137 70.2193C40.4318 67.8373 37.5511 66.6464 34.1716 66.6464C30.7921 66.6464 27.9114 67.8373 25.5295 70.2193C23.1476 72.6012 21.9566 75.4819 21.9566 78.8614H20.7351C18.3735 78.8614 16.358 79.6961 14.6887 81.3655C13.0193 83.0348 12.1846 85.0503 12.1846 87.4119C12.1846 89.7735 13.0193 91.7889 14.6887 93.4583C16.358 95.1277 18.3735 95.9624 20.7351 95.9624Z" fill="url(#paint3_linear_603_259)"/>
</g>
<path d="M10.8886 97.3584C13.6092 100.016 16.9007 101.348 20.7351 101.348H50.0511C53.2359 101.348 55.9593 100.228 58.1917 97.9955C60.4242 95.763 61.5446 93.0397 61.5446 89.8549C61.5446 86.924 60.5741 84.353 58.6404 82.1643C56.8023 80.0839 54.5049 78.8343 51.768 78.4229C51.6685 73.7178 49.9599 69.6958 46.6485 66.3844C43.2348 62.9707 39.0658 61.2604 34.1716 61.2604C30.1952 61.2604 26.6278 62.456 23.4863 64.8436C20.4224 67.1721 18.3512 70.2034 17.2796 73.9223C14.2062 74.6732 11.6982 76.3019 9.77304 78.8005C7.79103 81.3729 6.79858 84.3103 6.79858 87.5951C6.79858 91.4336 8.165 94.6981 10.8886 97.3584Z" stroke="url(#paint4_linear_603_259)"/>
<g filter="url(#filter2_i_603_259)">
<path d="M91.7809 49.4127C94.5034 49.4127 96.8294 48.4703 98.7591 46.5856C100.689 44.7008 101.654 42.3972 101.654 39.6747C101.654 37.3412 100.951 35.262 99.5444 33.437C98.1383 31.6121 96.2984 30.4453 94.0247 29.9367C93.2768 27.1844 91.7809 24.9556 89.5372 23.2503C87.2934 21.545 84.7504 20.6924 81.9083 20.6924C78.408 20.6924 75.4388 21.9115 73.0005 24.3497C70.5623 26.788 69.3432 29.7572 69.3432 33.2575C67.2789 33.4969 65.5661 34.3869 64.2049 35.9276C62.8437 37.4684 62.1631 39.2709 62.1631 41.3351C62.1631 43.5789 62.9484 45.4861 64.5191 47.0568C66.0897 48.6274 67.9969 49.4127 70.2407 49.4127H91.7809ZM91.7809 45.8227H70.2407C68.9842 45.8227 67.9221 45.3889 67.0545 44.5213C66.1869 43.6537 65.7531 42.5916 65.7531 41.3351C65.7531 40.0786 66.1869 39.0166 67.0545 38.149C67.9221 37.2814 68.9842 36.8476 70.2407 36.8476H72.9332V33.2575C72.9332 30.7744 73.8083 28.6578 75.5584 26.9076C77.3086 25.1575 79.4252 24.2824 81.9083 24.2824C84.3914 24.2824 86.5081 25.1575 88.2582 26.9076C90.0084 28.6578 90.8834 30.7744 90.8834 33.2575H91.7809C93.5161 33.2575 94.997 33.8708 96.2236 35.0974C97.4502 36.324 98.0635 37.8049 98.0635 39.5401C98.0635 41.2753 97.4502 42.7562 96.2236 43.9828C94.997 45.2094 93.5161 45.8227 91.7809 45.8227Z" fill="url(#paint5_linear_603_259)"/>
<path d="M91.7809 45.8227H70.2407C68.9842 45.8227 67.9221 45.3889 67.0545 44.5213C66.1869 43.6537 65.7531 42.5916 65.7531 41.3351C65.7531 40.0786 66.1869 39.0166 67.0545 38.149C67.9221 37.2814 68.9842 36.8476 70.2407 36.8476H72.9332V33.2575C72.9332 30.7744 73.8083 28.6578 75.5584 26.9076C77.3086 25.1575 79.4252 24.2824 81.9083 24.2824C84.3914 24.2824 86.5081 25.1575 88.2582 26.9076C90.0084 28.6578 90.8834 30.7744 90.8834 33.2575H91.7809C93.5161 33.2575 94.997 33.8708 96.2236 35.0974C97.4502 36.324 98.0635 37.8049 98.0635 39.5401C98.0635 41.2753 97.4502 42.7562 96.2236 43.9828C94.997 45.2094 93.5161 45.8227 91.7809 45.8227Z" fill="url(#paint6_linear_603_259)"/>
</g>
<path d="M99.1085 46.9433C97.0844 48.9202 94.6326 49.9127 91.7809 49.9127H70.2407C67.8658 49.9127 65.831 49.0758 64.1655 47.4103C62.5 45.7448 61.6631 43.71 61.6631 41.3351C61.6631 39.1495 62.3879 37.2291 63.8302 35.5966C65.1769 34.0723 66.8562 33.1449 68.8494 32.8214C68.9475 29.3783 70.2154 26.4277 72.647 23.9962C75.1806 21.4626 78.2777 20.1924 81.9083 20.1924C84.8587 20.1924 87.5081 21.0802 89.8397 22.8522C92.0937 24.5652 93.6247 26.7921 94.4259 29.5182C96.6791 30.0849 98.5229 31.2921 99.9405 33.1319C101.415 35.0455 102.154 37.2323 102.154 39.6747C102.154 42.5304 101.135 44.9634 99.1085 46.9433Z" stroke="url(#paint7_linear_603_259)"/>
<defs>
<filter id="filter0_i_603_259" x="0.599121" y="0.819946" width="117.802" height="117.802" filterUnits="userSpaceOnUse" color-interpolation-filters="sRGB">
<feFlood flood-opacity="0" result="BackgroundImageFix"/>
<feBlend mode="normal" in="SourceGraphic" in2="BackgroundImageFix" result="shape"/>
<feColorMatrix in="SourceAlpha" type="matrix" values="0 0 0 0 0 0 0 0 0 0 0 0 0 0 0 0 0 0 127 0" result="hardAlpha"/>
<feOffset dx="5" dy="5"/>
<feGaussianBlur stdDeviation="5"/>
<feComposite in2="hardAlpha" operator="arithmetic" k2="-1" k3="1"/>
<feColorMatrix type="matrix" values="0 0 0 0 1 0 0 0 0 0.870588 0 0 0 0 0.411765 0 0 0 1 0"/>
<feBlend mode="normal" in2="shape" result="effect1_innerShadow_603_259"/>
</filter>
<filter id="filter1_i_603_259" x="6.29858" y="60.7604" width="60.7461" height="46.088" filterUnits="userSpaceOnUse" color-interpolation-filters="sRGB">
<feFlood flood-opacity="0" result="BackgroundImageFix"/>
<feBlend mode="normal" in="SourceGraphic" in2="BackgroundImageFix" result="shape"/>
<feColorMatrix in="SourceAlpha" type="matrix" values="0 0 0 0 0 0 0 0 0 0 0 0 0 0 0 0 0 0 127 0" result="hardAlpha"/>
<feOffset dx="5" dy="5"/>
<feGaussianBlur stdDeviation="5"/>
<feComposite in2="hardAlpha" operator="arithmetic" k2="-1" k3="1"/>
<feColorMatrix type="matrix" values="0 0 0 0 0.941176 0 0 0 0 0.980392 0 0 0 0 1 0 0 0 1 0"/>
<feBlend mode="normal" in2="shape" result="effect1_innerShadow_603_259"/>
</filter>
<filter id="filter2_i_603_259" x="61.1631" y="19.6924" width="46.4905" height="35.7203" filterUnits="userSpaceOnUse" color-interpolation-filters="sRGB">
<feFlood flood-opacity="0" result="BackgroundImageFix"/>
<feBlend mode="normal" in="SourceGraphic" in2="BackgroundImageFix" result="shape"/>
<feColorMatrix in="SourceAlpha" type="matrix" values="0 0 0 0 0 0 0 0 0 0 0 0 0 0 0 0 0 0 127 0" result="hardAlpha"/>
<feOffset dx="5" dy="5"/>
<feGaussianBlur stdDeviation="5"/>
<feComposite in2="hardAlpha" operator="arithmetic" k2="-1" k3="1"/>
<feColorMatrix type="matrix" values="0 0 0 0 0.941176 0 0 0 0 0.980392 0 0 0 0 1 0 0 0 1 0"/>
<feBlend mode="normal" in2="shape" result="effect1_innerShadow_603_259"/>
</filter>
<radialGradient id="paint0_radial_603_259" cx="0" cy="0" r="1" gradientUnits="userSpaceOnUse" gradientTransform="translate(23.0992 27.2902) rotate(50.9162) scale(111.22)">
<stop stop-color="#FFE271"/>
<stop offset="0.232364" stop-color="#FFBD3E"/>
<stop offset="0.514629" stop-color="#FF9101"/>
<stop offset="0.727745" stop-color="#FFAC27"/>
<stop offset="0.847509" stop-color="#FFBE3F"/>
<stop offset="1" stop-color="#FFD45E"/>
</radialGradient>
<linearGradient id="paint1_linear_603_259" x1="86.0038" y1="88.8173" x2="9.01814" y2="10.4319" gradientUnits="userSpaceOnUse">
<stop stop-color="#FFB04A"/>
<stop offset="1" stop-color="#FFE271"/>
</linearGradient>
<linearGradient id="paint2_linear_603_259" x1="46.7575" y1="68.9478" x2="9.86078" y2="89.8625" gradientUnits="userSpaceOnUse">
<stop stop-color="#D3E9FC"/>
<stop offset="0.73544" stop-color="#A2CEE1"/>
</linearGradient>
<linearGradient id="paint3_linear_603_259" x1="46.7575" y1="68.9478" x2="9.86078" y2="89.8625" gradientUnits="userSpaceOnUse">
<stop stop-color="#D3E9FC"/>
<stop offset="0.73544" stop-color="#A2CEE1"/>
</linearGradient>
<linearGradient id="paint4_linear_603_259" x1="14.4898" y1="71.4338" x2="48.3879" y2="98.7229" gradientUnits="userSpaceOnUse">
<stop stop-color="#D3E9FC"/>
<stop offset="1" stop-color="#A2CEE1"/>
</linearGradient>
<linearGradient id="paint5_linear_603_259" x1="72.6607" y1="25.9734" x2="99.771" y2="41.3407" gradientUnits="userSpaceOnUse">
<stop stop-color="#D3E9FC"/>
<stop offset="0.73544" stop-color="#A2CEE1"/>
</linearGradient>
<linearGradient id="paint6_linear_603_259" x1="72.6607" y1="25.9734" x2="99.771" y2="41.3407" gradientUnits="userSpaceOnUse">
<stop stop-color="#D3E9FC"/>
<stop offset="0.73544" stop-color="#A2CEE1"/>
</linearGradient>
<linearGradient id="paint7_linear_603_259" x1="96.3697" y1="27.8001" x2="71.4627" y2="47.851" gradientUnits="userSpaceOnUse">
<stop stop-color="#D3E9FC"/>
<stop offset="1" stop-color="#A2CEE1"/>
</linearGradient>
</defs>
</svg>
