<svg width="57" height="83" viewBox="0 0 57 83" fill="none" xmlns="http://www.w3.org/2000/svg">
<g opacity="0.5">
<path d="M-7.02856 71.5808C-7.46672 71.7949 -7.91218 71.8283 -8.36494 71.6812C-8.8177 71.534 -9.16092 71.2597 -9.3946 70.8584L-13.7762 62.8311C-14.0099 62.4297 -14.0464 62.0217 -13.8857 61.6069C-13.725 61.1922 -13.4256 60.8778 -12.9875 60.6637C-12.5493 60.4496 -12.1039 60.4162 -11.6511 60.5634C-11.1983 60.7105 -10.8551 60.9848 -10.6214 61.3862L-6.23988 69.4135C-6.00619 69.8148 -5.96968 70.2229 -6.13034 70.6376C-6.291 71.0524 -6.5904 71.3668 -7.02856 71.5808ZM-0.894369 82.819C-1.33253 83.0331 -1.77798 83.0665 -2.23075 82.9194C-2.68351 82.7722 -3.02673 82.4979 -3.26042 82.0966L-6.76567 75.6747C-6.99935 75.2734 -7.03586 74.8653 -6.87521 74.4506C-6.71455 74.0358 -6.41514 73.7214 -5.97698 73.5074C-5.53883 73.2933 -5.09337 73.2599 -4.64061 73.407C-4.18785 73.5542 -3.84462 73.8285 -3.61094 74.2298L-0.105687 80.6517C0.127996 81.053 0.164509 81.4611 0.00385189 81.8758C-0.156806 82.2906 -0.456213 82.605 -0.894369 82.819ZM2.69851 74.7917C2.26036 75.0058 1.8149 75.0393 1.36213 74.8921C0.909373 74.7449 0.566153 74.4707 0.332469 74.0693L-5.80172 62.8311C-6.0354 62.4297 -6.07192 62.0217 -5.91126 61.6069C-5.7506 61.1922 -5.4512 60.8778 -5.01304 60.6637C-4.57488 60.4496 -4.12942 60.4162 -3.67666 60.5634C-3.2239 60.7105 -2.88068 60.9848 -2.64699 61.3862L3.4872 72.6244C3.72088 73.0257 3.75739 73.4338 3.59674 73.8485C3.43608 74.2633 3.13667 74.5777 2.69851 74.7917ZM6.46666 66.7645C6.0285 66.9785 5.58304 67.012 5.13028 66.8648C4.67752 66.7176 4.3343 66.4434 4.10061 66.042L2.3918 62.8311C2.15812 62.4297 2.12161 62.0217 2.28226 61.6069C2.44292 61.1922 2.74233 60.8778 3.18048 60.6637C3.61864 60.4496 4.0568 60.4162 4.49496 60.5634C4.93311 60.7105 5.26903 60.9848 5.50271 61.3862L7.25534 64.5971C7.48902 64.9984 7.52554 65.4065 7.36488 65.8212C7.20422 66.236 6.90481 66.5504 6.46666 66.7645ZM7.51823 82.7789C7.08008 82.993 6.63462 83.0331 6.18186 82.8993C5.7291 82.7655 5.38587 82.4979 5.15219 82.0966L3.39956 78.8857C3.16588 78.4843 3.12937 78.0762 3.29002 77.6615C3.45068 77.2468 3.75009 76.9324 4.18824 76.7183C4.6264 76.5042 5.07186 76.4708 5.52462 76.618C5.97738 76.7651 6.32061 77.0394 6.55429 77.4407L8.30692 80.6517C8.5406 81.053 8.57711 81.4544 8.41646 81.8558C8.2558 82.2571 7.95639 82.5648 7.51823 82.7789ZM15.6679 82.7789C15.2298 82.993 14.7843 83.0331 14.3316 82.8993C13.8788 82.7655 13.5356 82.4979 13.3019 82.0966L7.16771 70.8584C6.93402 70.457 6.89751 70.049 7.05817 69.6342C7.21883 69.2195 7.51823 68.9051 7.95639 68.691C8.39455 68.4769 8.84 68.4435 9.29277 68.5907C9.74553 68.7378 10.0887 69.0121 10.3224 69.4135L16.4566 80.6517C16.6903 81.053 16.7268 81.4544 16.5662 81.8558C16.4055 82.2571 16.1061 82.5648 15.6679 82.7789ZM18.3845 73.1863C17.9464 73.4003 17.5009 73.4338 17.0481 73.2866C16.5954 73.1395 16.2522 72.8652 16.0185 72.4638L10.7606 62.8311C10.5269 62.4297 10.4904 62.0217 10.6511 61.6069C10.8117 61.1922 11.1111 60.8778 11.5493 60.6637C11.9874 60.4496 12.4329 60.4162 12.8857 60.5634C13.3384 60.7105 13.6816 60.9848 13.9153 61.3862L19.1732 71.0189C19.4069 71.4203 19.4434 71.8283 19.2827 72.2431C19.1221 72.6578 18.8227 72.9722 18.3845 73.1863ZM23.6424 82.819C23.2042 83.0331 22.7588 83.0665 22.306 82.9194C21.8532 82.7722 21.51 82.4979 21.2763 82.0966L18.6474 77.2802C18.4137 76.8788 18.3772 76.4708 18.5379 76.056C18.6985 75.6413 18.9979 75.3269 19.4361 75.1128C19.8742 74.8988 20.3197 74.8653 20.7725 75.0125C21.2252 75.1597 21.5685 75.4339 21.8021 75.8353L24.4311 80.6517C24.6648 81.053 24.7013 81.4611 24.5406 81.8758C24.3799 82.2906 24.0805 82.605 23.6424 82.819Z" fill="url(#paint0_linear_626_668)"/>
<path d="M23.7012 66.7644C23.263 66.9785 22.8176 67.0119 22.3648 66.8647C21.912 66.7176 21.5688 66.4433 21.3351 66.042L19.6263 62.831C19.3926 62.4297 19.3561 62.0216 19.5168 61.6069C19.6774 61.1921 19.9768 60.8777 20.415 60.6637C20.8532 60.4496 21.2913 60.4162 21.7295 60.5633C22.1676 60.7105 22.5035 60.9848 22.7372 61.3861L24.4899 64.597C24.7235 64.9984 24.7601 65.4065 24.5994 65.8212C24.4387 66.2359 24.1393 66.5503 23.7012 66.7644ZM32.9025 82.7789C32.4643 82.9929 32.0188 83.0331 31.5661 82.8993C31.1133 82.7655 30.7701 82.4979 30.5364 82.0965L24.4022 70.8583C24.1685 70.457 24.132 70.0489 24.2927 69.6342C24.4533 69.2194 24.7528 68.905 25.1909 68.691C25.6291 68.4769 26.0745 68.4434 26.5273 68.5906C26.98 68.7378 27.3233 69.012 27.5569 69.4134L33.6911 80.6516C33.9248 81.053 33.9613 81.4544 33.8007 81.8557C33.64 82.2571 33.3406 82.5648 32.9025 82.7789ZM35.619 73.1862C35.1809 73.4003 34.7354 73.4338 34.2827 73.2866C33.8299 73.1394 33.4867 72.8651 33.253 72.4638L27.9951 62.831C27.7614 62.4297 27.7249 62.0216 27.8856 61.6069C28.0462 61.1921 28.3456 60.8777 28.7838 60.6637C29.2219 60.4496 29.6674 60.4162 30.1202 60.5633C30.5729 60.7105 30.9161 60.9848 31.1498 61.3861L36.4077 71.0189C36.6414 71.4202 36.6779 71.8283 36.5173 72.243C36.3566 72.6578 36.0572 72.9722 35.619 73.1862ZM40.8769 82.819C40.4388 83.0331 39.9933 83.0665 39.5405 82.9193C39.0878 82.7722 38.7445 82.4979 38.5109 82.0965L35.8819 77.2802C35.6482 76.8788 35.6117 76.4707 35.7724 76.056C35.933 75.6413 36.2325 75.3269 36.6706 75.1128C37.1088 74.8987 37.5542 74.8653 38.007 75.0125C38.4597 75.1596 38.803 75.4339 39.0367 75.8352L41.6656 80.6516C41.8993 81.053 41.9358 81.461 41.7751 81.8758C41.6145 82.2905 41.3151 82.6049 40.8769 82.819Z" fill="url(#paint1_linear_626_668)"/>
<g filter="url(#filter0_i_626_668)">
<path d="M-11.8826 60.4734C-18.0379 60.4734 -23.297 58.5216 -27.6598 54.618C-32.0227 50.7145 -34.2041 45.9435 -34.2041 40.305C-34.2041 35.4721 -32.6145 31.1658 -29.4354 27.3861C-26.2563 23.6065 -22.0964 21.19 -16.9557 20.1367C-15.2647 14.4363 -11.8826 9.82018 -6.80956 6.28839C-1.7365 2.75661 4.01297 0.990723 10.4389 0.990723C18.3528 0.990723 25.0662 3.51564 30.5789 8.56546C36.0916 13.6153 38.848 19.7649 38.848 27.0144C43.5152 27.5101 47.3877 29.3534 50.4653 32.5444C53.543 35.7354 55.0818 39.4686 55.0818 43.7439C55.0818 48.3909 53.3062 52.341 49.7551 55.5939C46.2039 58.8469 41.8918 60.4734 36.8188 60.4734H-11.8826ZM-11.8826 53.038H36.8188C39.6597 53.038 42.0609 52.1396 44.0225 50.3427C45.9841 48.5459 46.9649 46.3462 46.9649 43.7439C46.9649 41.1415 45.9841 38.9419 44.0225 37.145C42.0609 35.3481 39.6597 34.4497 36.8188 34.4497H30.7311V27.0144C30.7311 21.8716 28.7526 17.4879 24.7956 13.8631C20.8386 10.2384 16.053 8.42605 10.4389 8.42605C4.82467 8.42605 0.0390739 10.2384 -3.91792 13.8631C-7.8749 17.4879 -9.8534 21.8716 -9.8534 27.0144H-11.8826C-15.8058 27.0144 -19.154 28.2846 -21.9273 30.825C-24.7006 33.3654 -26.0872 36.4325 -26.0872 40.0262C-26.0872 43.6199 -24.7006 46.687 -21.9273 49.2274C-19.154 51.7678 -15.8058 53.038 -11.8826 53.038Z" fill="url(#paint2_linear_626_668)"/>
<path d="M-11.8826 53.038H36.8188C39.6597 53.038 42.0609 52.1396 44.0225 50.3427C45.9841 48.5459 46.9649 46.3462 46.9649 43.7439C46.9649 41.1415 45.9841 38.9419 44.0225 37.145C42.0609 35.3481 39.6597 34.4497 36.8188 34.4497H30.7311V27.0144C30.7311 21.8716 28.7526 17.4879 24.7956 13.8631C20.8386 10.2384 16.053 8.42605 10.4389 8.42605C4.82467 8.42605 0.0390739 10.2384 -3.91792 13.8631C-7.8749 17.4879 -9.8534 21.8716 -9.8534 27.0144H-11.8826C-15.8058 27.0144 -19.154 28.2846 -21.9273 30.825C-24.7006 33.3654 -26.0872 36.4325 -26.0872 40.0262C-26.0872 43.6199 -24.7006 46.687 -21.9273 49.2274C-19.154 51.7678 -15.8058 53.038 -11.8826 53.038Z" fill="url(#paint3_linear_626_668)"/>
</g>
<path d="M-27.9932 54.9907C-23.5337 58.9807 -18.154 60.9734 -11.8826 60.9734H36.8188C42.0095 60.9734 46.4442 59.3049 50.0928 55.9626C53.7431 52.6188 55.5818 48.5368 55.5818 43.7439C55.5818 39.3339 53.9891 35.4777 50.8252 32.1973C47.7595 29.0187 43.9246 27.1436 39.3446 26.5686C39.2332 19.367 36.416 13.2343 30.9166 8.19677C25.306 3.05722 18.4698 0.490723 10.4389 0.490723C3.91512 0.490723 -1.93489 2.28549 -7.09524 5.87804C-12.1725 9.41275 -15.5963 14.0261 -17.3485 19.7085C-22.4584 20.814 -26.6225 23.2651 -29.8181 27.0643C-33.0712 30.9319 -34.7041 35.3515 -34.7041 40.305C-34.7041 46.0918 -32.4575 50.9964 -27.9932 54.9907Z" stroke="url(#paint4_linear_626_668)"/>
</g>
<defs>
<filter id="filter0_i_626_668" x="-35.2041" y="-0.00927734" width="96.2859" height="66.4827" filterUnits="userSpaceOnUse" color-interpolation-filters="sRGB">
<feFlood flood-opacity="0" result="BackgroundImageFix"/>
<feBlend mode="normal" in="SourceGraphic" in2="BackgroundImageFix" result="shape"/>
<feColorMatrix in="SourceAlpha" type="matrix" values="0 0 0 0 0 0 0 0 0 0 0 0 0 0 0 0 0 0 127 0" result="hardAlpha"/>
<feOffset dx="5" dy="5"/>
<feGaussianBlur stdDeviation="5"/>
<feComposite in2="hardAlpha" operator="arithmetic" k2="-1" k3="1"/>
<feColorMatrix type="matrix" values="0 0 0 0 0.941176 0 0 0 0 0.980392 0 0 0 0 1 0 0 0 1 0"/>
<feBlend mode="normal" in2="shape" result="effect1_innerShadow_626_668"/>
</filter>
<linearGradient id="paint0_linear_626_668" x1="30.5372" y1="78.9866" x2="27.0325" y2="60.0481" gradientUnits="userSpaceOnUse">
<stop stop-color="#BED6EA"/>
<stop offset="1" stop-color="#63808D"/>
</linearGradient>
<linearGradient id="paint1_linear_626_668" x1="30.5372" y1="78.9866" x2="27.0325" y2="60.0481" gradientUnits="userSpaceOnUse">
<stop stop-color="#BED6EA"/>
<stop offset="1" stop-color="#63808D"/>
</linearGradient>
<linearGradient id="paint2_linear_626_668" x1="-2.03281" y1="85.9581" x2="34.7894" y2="18.0971" gradientUnits="userSpaceOnUse">
<stop stop-color="#BED6EA"/>
<stop offset="0.333186" stop-color="#7FAABE"/>
<stop offset="1" stop-color="#63808D"/>
</linearGradient>
<linearGradient id="paint3_linear_626_668" x1="-2.03281" y1="85.9581" x2="34.7894" y2="18.0971" gradientUnits="userSpaceOnUse">
<stop stop-color="#BED6EA"/>
<stop offset="0.333186" stop-color="#7FAABE"/>
<stop offset="1" stop-color="#63808D"/>
</linearGradient>
<linearGradient id="paint4_linear_626_668" x1="46.1111" y1="92.0184" x2="8.11746" y2="10.7712" gradientUnits="userSpaceOnUse">
<stop stop-color="#BED6EA"/>
<stop offset="0.333186" stop-color="#7FAABE"/>
<stop offset="1" stop-color="#63808D"/>
</linearGradient>
</defs>
</svg>
