<svg width="56" height="49" viewBox="0 0 56 49" fill="none" xmlns="http://www.w3.org/2000/svg">
<path d="M15.6123 6.90422L8.54032 48.4522H1.60432L8.67632 6.90422H0.924316V0.920212H15.6123V6.90422Z" fill="white"/>
<path d="M34.842 30.0922L34.774 41.0402V42.1962C34.774 45.9362 31.782 48.9282 28.042 48.9282H25.254C21.514 48.9282 18.522 45.9362 18.522 42.1962V7.17621C18.522 3.43621 21.514 0.444214 25.254 0.444214H28.042C31.782 0.444214 34.774 3.43621 34.774 7.17621V7.44821C34.842 7.51621 34.842 7.58422 34.842 7.65221V17.5122H28.042V8.19622C28.042 7.51621 27.43 6.90422 26.682 6.90422H26.614C25.866 6.90422 25.254 7.51621 25.254 8.19622V20.8442C25.254 20.8442 25.798 19.5522 28.79 19.5522H29.198C32.326 19.5522 34.842 22.1362 34.842 25.1962V30.0922ZM28.042 26.0122C28.042 25.2642 27.43 24.7202 26.682 24.7202H26.614C25.866 24.7202 25.254 25.2642 25.254 26.0122V41.1762C25.254 41.8562 25.866 42.4682 26.614 42.4682H26.682C27.43 42.4682 28.042 41.8562 28.042 41.1762V26.0122Z" fill="white"/>
<path d="M50.342 16.4442C50.7587 16.4442 51.1129 16.2984 51.4045 16.0067C51.6962 15.715 51.842 15.3609 51.842 14.9442C51.842 14.5275 51.6962 14.1734 51.4045 13.8817C51.1129 13.59 50.7587 13.4442 50.342 13.4442C49.9254 13.4442 49.5712 13.59 49.2795 13.8817C48.9879 14.1734 48.842 14.5275 48.842 14.9442C48.842 15.3609 48.9879 15.715 49.2795 16.0067C49.5712 16.2984 49.9254 16.4442 50.342 16.4442ZM45.292 16.3942L51.792 9.89421L50.392 8.49421L43.892 14.9942L45.292 16.3942ZM45.342 11.4442C45.7587 11.4442 46.1129 11.2984 46.4045 11.0067C46.6962 10.715 46.842 10.3609 46.842 9.94421C46.842 9.52755 46.6962 9.17338 46.4045 8.88171C46.1129 8.59005 45.7587 8.44421 45.342 8.44421C44.9254 8.44421 44.5712 8.59005 44.2795 8.88171C43.9879 9.17338 43.842 9.52755 43.842 9.94421C43.842 10.3609 43.9879 10.715 44.2795 11.0067C44.5712 11.2984 44.9254 11.4442 45.342 11.4442ZM47.842 20.4442C45.5587 20.4442 43.6545 19.6609 42.1295 18.0942C40.6045 16.5275 39.842 14.5775 39.842 12.2442C39.842 10.5775 40.5045 8.76505 41.8295 6.80671C43.1545 4.84838 45.1587 2.72755 47.842 0.444214C50.5254 2.72755 52.5295 4.84838 53.8545 6.80671C55.1795 8.76505 55.842 10.5775 55.842 12.2442C55.842 14.5775 55.0795 16.5275 53.5545 18.0942C52.0295 19.6609 50.1254 20.4442 47.842 20.4442ZM47.842 18.4442C49.5754 18.4442 51.0087 17.8567 52.142 16.6817C53.2754 15.5067 53.842 14.0275 53.842 12.2442C53.842 11.0275 53.3379 9.65255 52.3295 8.11921C51.3212 6.58588 49.8254 4.91088 47.842 3.09421C45.8587 4.91088 44.3629 6.58588 43.3545 8.11921C42.3462 9.65255 41.842 11.0275 41.842 12.2442C41.842 14.0275 42.4087 15.5067 43.542 16.6817C44.6754 17.8567 46.1087 18.4442 47.842 18.4442Z" fill="white"/>
</svg>
