<svg width="28" height="289" viewBox="0 0 28 289" fill="none" xmlns="http://www.w3.org/2000/svg">
<path d="M0.959961 13.7943C0.959961 6.56222 6.82272 0.699463 14.0548 0.699463C21.2869 0.699463 27.1496 6.56222 27.1496 13.7943V39.984C27.1496 47.2161 21.2869 53.0788 14.0548 53.0788C6.82272 53.0788 0.959961 47.2161 0.959961 39.984V13.7943Z" fill="#4CD964"/>
<path d="M5.32491 66.1737C5.32491 61.3523 9.23341 57.4438 14.0548 57.4438C18.8762 57.4438 22.7847 61.3523 22.7847 66.1737V83.6334C22.7847 88.4548 18.8762 92.3633 14.0548 92.3633C9.23341 92.3633 5.32491 88.4548 5.32491 83.6334V66.1737Z" fill="#FF9500"/>
<path d="M5.32491 105.458C5.32491 100.637 9.23341 96.7283 14.0548 96.7283C18.8762 96.7283 22.7847 100.637 22.7847 105.458V122.918C22.7847 127.739 18.8762 131.648 14.0548 131.648C9.23341 131.648 5.32491 127.739 5.32491 122.918V105.458Z" fill="#4CD964"/>
<path d="M5.32491 144.743C5.32491 139.921 9.23341 136.013 14.0548 136.013C18.8762 136.013 22.7847 139.921 22.7847 144.743V162.202C22.7847 167.024 18.8762 170.932 14.0548 170.932C9.23341 170.932 5.32491 167.024 5.32491 162.202V144.743Z" fill="#FFCC00"/>
<path d="M5.32491 184.027C5.32491 179.206 9.23341 175.297 14.0548 175.297C18.8762 175.297 22.7847 179.206 22.7847 184.027V201.487C22.7847 206.308 18.8762 210.217 14.0548 210.217C9.23341 210.217 5.32491 206.308 5.32491 201.487V184.027Z" fill="#FF9500"/>
<path d="M5.32491 223.312C5.32491 218.49 9.23341 214.582 14.0548 214.582C18.8762 214.582 22.7847 218.49 22.7847 223.312V240.771C22.7847 245.593 18.8762 249.501 14.0548 249.501C9.23341 249.501 5.32491 245.593 5.32491 240.771V223.312Z" fill="#FF3B30"/>
<path d="M5.32491 262.596C5.32491 257.775 9.23341 253.866 14.0548 253.866C18.8762 253.866 22.7847 257.775 22.7847 262.596V280.056C22.7847 284.877 18.8762 288.786 14.0548 288.786C9.23341 288.786 5.32491 284.877 5.32491 280.056V262.596Z" fill="#9C27B0"/>
</svg>
