<svg width="362" height="73" viewBox="0 0 362 73" fill="none" xmlns="http://www.w3.org/2000/svg">
<g filter="url(#filter0_bd_860_4)">
<path d="M5.16113 31.5C5.16113 17.328 16.6498 5.83929 30.8218 5.83929H320.788C334.96 5.83929 346.448 17.328 346.448 31.5C346.448 45.672 334.96 57.1607 320.788 57.1607H30.8218C16.6498 57.1607 5.16113 45.672 5.16113 31.5Z" fill="white" fill-opacity="0.5"/>
<path d="M29.1545 31.5C29.1545 20.6845 37.9223 11.9167 48.7378 11.9167H82.9825C93.798 11.9167 102.566 20.6845 102.566 31.5C102.566 42.3155 93.798 51.0833 82.9825 51.0833H48.7378C37.9223 51.0833 29.1545 42.3155 29.1545 31.5Z" fill="#1C1B1F" fill-opacity="0.8"/>
<path d="M74.0196 45.7079C73.6171 45.7079 73.2796 45.5717 73.0073 45.2994C72.735 45.0271 72.5988 44.6896 72.5988 44.2871V21.5545C72.5988 21.1519 72.735 20.8145 73.0073 20.5422C73.2796 20.2699 73.6171 20.1337 74.0196 20.1337H76.8612V17.2922H82.5443V20.1337H85.3859C85.7885 20.1337 86.1259 20.2699 86.3982 20.5422C86.6705 20.8145 86.8067 21.1519 86.8067 21.5545V44.2871C86.8067 44.6896 86.6705 45.0271 86.3982 45.2994C86.1259 45.5717 85.7885 45.7079 85.3859 45.7079H74.0196ZM75.4404 31.5H83.9651V22.9753H75.4404V31.5Z" fill="white"/>
<path d="M41.8909 29.3685C41.8909 26.7355 44.058 25.4189 46.6911 25.4189C49.3241 25.4189 51.4913 26.7355 51.4913 29.3685C51.4913 30.928 50.6001 32.1028 49.0608 32.5484V32.5889C50.7824 33.0547 51.7343 34.2902 51.7343 36.0726C51.7343 38.8474 49.3443 40.2449 46.6911 40.2449C44.0378 40.2449 41.6478 38.8474 41.6478 36.0726C41.6478 34.2902 42.5998 33.0547 44.3213 32.5889V32.5484C42.782 32.1028 41.8909 30.928 41.8909 29.3685ZM44.929 29.7938C44.929 30.685 45.6379 31.3939 46.6911 31.3939C47.7443 31.3939 48.4532 30.685 48.4532 29.7938C48.4532 28.9229 47.7443 28.214 46.6911 28.214C45.6379 28.214 44.929 28.9229 44.929 29.7938ZM44.6859 35.6472C44.6859 36.6397 45.4961 37.4498 46.6911 37.4498C47.8861 37.4498 48.6962 36.6397 48.6962 35.6472C48.6962 34.6345 47.8861 33.8244 46.6911 33.8244C45.4961 33.8244 44.6859 34.6345 44.6859 35.6472Z" fill="white"/>
<path d="M53.3505 32.8319C53.3505 29.4292 54.424 25.4189 58.6773 25.4189C62.9307 25.4189 64.0041 29.4292 64.0041 32.8319C64.0041 36.2346 62.9307 40.2449 58.6773 40.2449C54.424 40.2449 53.3505 36.2346 53.3505 32.8319ZM56.3886 32.8319C56.3886 34.3307 56.4899 37.4498 58.6773 37.4498C60.8647 37.4498 60.966 34.3307 60.966 32.8319C60.966 31.3331 60.8647 28.214 58.6773 28.214C56.4899 28.214 56.3886 31.3331 56.3886 32.8319Z" fill="white"/>
<path d="M114.316 31.5C114.316 20.6845 123.083 11.9167 133.899 11.9167C144.715 11.9167 153.482 20.6845 153.482 31.5C153.482 42.3155 144.715 51.0833 133.899 51.0833C123.083 51.0833 114.316 42.3155 114.316 31.5Z" fill="#1C1B1F" fill-opacity="0.8"/>
<path d="M133.899 45.7077L129.687 41.5586H123.84V35.712L119.691 31.4999L123.84 27.2879V21.4413H129.687L133.899 17.2921L138.111 21.4413H143.957V27.2879L148.106 31.4999L143.957 35.712V41.5586H138.111L133.899 45.7077ZM133.899 37.7866C135.638 37.7866 137.121 37.1736 138.346 35.9477C139.572 34.7218 140.185 33.2392 140.185 31.4999C140.185 29.7606 139.572 28.278 138.346 27.0521C137.121 25.8262 135.638 25.2133 133.899 25.2133V37.7866ZM133.899 42.1872L137.042 39.0439H141.443V34.6432L144.586 31.4999L141.443 28.3566V23.956H137.042L133.899 20.8126L130.755 23.956H126.355V28.3566L123.211 31.4999L126.355 34.6432V39.0439H130.755L133.899 42.1872Z" fill="white"/>
<path d="M165.232 31.5C165.232 20.6845 174 11.9167 184.815 11.9167C195.631 11.9167 204.399 20.6845 204.399 31.5C204.399 42.3155 195.631 51.0833 184.815 51.0833C174 51.0833 165.232 42.3155 165.232 31.5Z" fill="#1C1B1F" fill-opacity="0.8"/>
<path d="M184.126 45.2845C183.368 45.2845 182.719 45.0146 182.179 44.4747C181.639 43.9348 181.369 43.2858 181.369 42.5276H186.883C186.883 43.2858 186.613 43.9348 186.073 44.4747C185.533 45.0146 184.884 45.2845 184.126 45.2845ZM173.098 41.1492V38.3923H175.855V28.7431C175.855 26.8362 176.43 25.1419 177.578 23.66C178.727 22.1782 180.221 21.2075 182.058 20.7481V19.7831C182.058 19.2088 182.259 18.7206 182.662 18.3185C183.064 17.9165 183.552 17.7155 184.126 17.7155C184.701 17.7155 185.189 17.9165 185.591 18.3185C185.993 18.7206 186.194 19.2088 186.194 19.7831V20.2311C185.941 20.7366 185.757 21.2535 185.642 21.7819C185.528 22.3103 185.482 22.8502 185.505 23.4016C185.275 23.3556 185.051 23.3154 184.833 23.281C184.614 23.2465 184.379 23.2293 184.126 23.2293C182.61 23.2293 181.312 23.7692 180.232 24.849C179.152 25.9287 178.612 27.2268 178.612 28.7431V38.3923H189.64V29.5357C190.053 29.7195 190.496 29.8631 190.967 29.9665C191.438 30.0699 191.914 30.1215 192.397 30.1215V38.3923H195.154V41.1492H173.098ZM192.397 27.3646C191.248 27.3646 190.272 26.9626 189.468 26.1585C188.664 25.3544 188.262 24.378 188.262 23.2293C188.262 22.0806 188.664 21.1042 189.468 20.3001C190.272 19.496 191.248 19.0939 192.397 19.0939C193.546 19.0939 194.522 19.496 195.326 20.3001C196.13 21.1042 196.532 22.0806 196.532 23.2293C196.532 24.378 196.13 25.3544 195.326 26.1585C194.522 26.9626 193.546 27.3646 192.397 27.3646Z" fill="white"/>
<path d="M229.996 17.6526C237.644 10.0048 250.043 10.0048 257.691 17.6526C265.339 25.3003 265.339 37.6997 257.691 45.3475C250.043 52.9952 237.644 52.9952 229.996 45.3475C222.348 37.6997 222.348 25.3003 229.996 17.6526Z" fill="#1C1B1F" fill-opacity="0.8"/>
<path d="M245.546 44.2705C245.078 44.7388 244.51 44.9729 243.843 44.9729C243.177 44.9729 242.609 44.7388 242.141 44.2705C241.672 43.8023 241.438 43.2347 241.438 42.5678C241.438 41.9009 241.672 41.3333 242.141 40.8651C242.609 40.3968 243.177 40.1627 243.843 40.1627C244.51 40.1627 245.078 40.3968 245.546 40.8651C246.014 41.3333 246.249 41.9009 246.249 42.5678C246.249 43.2347 246.014 43.8023 245.546 44.2705ZM255.763 34.0541C254.102 32.394 252.24 31.1559 250.175 30.34C248.111 29.5241 246 29.1162 243.843 29.1162C241.687 29.1162 239.576 29.5241 237.511 30.34C235.447 31.1559 233.584 32.394 231.924 34.0541L229.37 31.5C231.385 29.4851 233.641 27.981 236.139 26.9878C238.636 25.9945 241.204 25.4979 243.843 25.4979C246.483 25.4979 249.051 25.9945 251.548 26.9878C254.046 27.981 256.302 29.4851 258.317 31.5L255.763 34.0541ZM250.654 39.1623C249.704 38.2116 248.643 37.5057 247.472 37.0445C246.302 36.5834 245.092 36.3528 243.843 36.3528C242.595 36.3528 241.385 36.5834 240.214 37.0445C239.044 37.5057 237.983 38.2116 237.033 39.1623L234.478 36.6082C235.784 35.3028 237.245 34.3308 238.863 33.6923C240.481 33.0538 242.141 32.7345 243.843 32.7345C245.546 32.7345 247.206 33.0538 248.824 33.6923C250.442 34.3308 251.903 35.3028 253.208 36.6082L250.654 39.1623Z" fill="white"/>
<path d="M322.455 31.5C322.455 42.3155 313.687 51.0833 302.872 51.0833C292.056 51.0833 283.288 42.3155 283.288 31.5C283.288 20.6845 292.056 11.9167 302.872 11.9167C313.687 11.9167 322.455 20.6845 322.455 31.5Z" fill="#D9D9D9"/>
</g>
<defs>
<filter id="filter0_bd_860_4" x="-44.8389" y="-44.1607" width="441.287" height="151.321" filterUnits="userSpaceOnUse" color-interpolation-filters="sRGB">
<feFlood flood-opacity="0" result="BackgroundImageFix"/>
<feGaussianBlur in="BackgroundImageFix" stdDeviation="25"/>
<feComposite in2="SourceAlpha" operator="in" result="effect1_backgroundBlur_860_4"/>
<feColorMatrix in="SourceAlpha" type="matrix" values="0 0 0 0 0 0 0 0 0 0 0 0 0 0 0 0 0 0 127 0" result="hardAlpha"/>
<feOffset dx="5" dy="5"/>
<feGaussianBlur stdDeviation="5"/>
<feComposite in2="hardAlpha" operator="out"/>
<feColorMatrix type="matrix" values="0 0 0 0 0 0 0 0 0 0 0 0 0 0 0 0 0 0 0.25 0"/>
<feBlend mode="normal" in2="effect1_backgroundBlur_860_4" result="effect2_dropShadow_860_4"/>
<feBlend mode="normal" in="SourceGraphic" in2="effect2_dropShadow_860_4" result="shape"/>
</filter>
</defs>
</svg>
