<svg width="132" height="128" viewBox="0 0 132 128" fill="none" xmlns="http://www.w3.org/2000/svg">
<g filter="url(#filter0_i_613_398)">
<path fill-rule="evenodd" clip-rule="evenodd" d="M63.1326 23.8415C71.0644 24.8888 80.0246 21.768 86.5936 26.3353C93.1391 30.8863 91.7668 41.41 97.0223 47.4047C104.154 55.5392 122.472 56.1559 122.218 66.9709C121.961 77.9248 103.833 78.236 96.1157 86.0137C90.9234 91.2465 90.9121 100.397 84.8662 104.615C78.6985 108.917 70.5104 110.478 63.1326 109.022C56.1106 107.637 52.83 98.4736 45.8445 96.9148C34.1793 94.3117 15.8713 108.027 10.6012 97.2999C5.12477 86.1523 28.7096 79.1522 31.134 66.9709C32.8523 58.3371 20.5659 51.6543 21.4293 42.8935C22.3387 33.6652 27.365 23.482 35.7995 19.6287C44.3299 15.7316 53.8349 22.6139 63.1326 23.8415Z" fill="url(#paint0_angular_613_398)"/>
<path fill-rule="evenodd" clip-rule="evenodd" d="M70.0988 25.3337C84.1154 24.5675 92.8313 -6.31875 104.217 1.89217C116.251 10.5707 93.5449 30.8498 97.5554 45.1344C100.135 54.3224 115.825 52.8477 120.808 60.9865C126.806 70.7823 136.07 86.437 127.581 94.1737C117.529 103.334 99.5851 84.874 87.581 91.2666C76.2659 97.2923 81.4283 118.786 70.0988 124.785C60.0341 130.114 43.4613 127.457 37.2227 117.93C29.8804 106.717 46.9001 89.8468 39.7844 78.4886C32.2137 66.4042 6.45864 74.3745 1.54868 60.9865C-2.50559 49.9317 17.0243 43.917 23.4985 34.0818C29.4789 24.9969 27.3786 7.51502 38.0684 5.50826C50.6233 3.15139 57.3437 26.031 70.0988 25.3337Z" fill="url(#paint1_angular_613_398)"/>
<path fill-rule="evenodd" clip-rule="evenodd" d="M61.3777 9.53158C70.3321 12.4627 75.9397 20.9116 84.349 25.1607C93.4335 29.7509 107.238 26.7221 112.565 35.3953C117.852 44.0048 110.69 55.0263 108.784 64.9481C107.215 73.1109 107.676 82.2243 102.34 88.5976C97.1679 94.7749 87.2347 93.7122 80.7258 98.46C73.0988 104.023 69.9689 114.563 61.3777 118.476C51.0753 123.169 36.6053 129.983 28.2222 122.375C18.9991 114.005 27.528 98.02 25.33 85.7603C24.008 78.387 15.6106 72.0722 17.9262 64.9481C20.3977 57.3442 35.4003 58.5984 36.7216 50.7129C39.2441 35.6599 19.8602 19.7128 27.7006 6.61759C33.589 -3.21737 50.4836 5.96553 61.3777 9.53158Z" fill="url(#paint2_angular_613_398)"/>
<path fill-rule="evenodd" clip-rule="evenodd" d="M53.6085 9.30923C63.255 11.8166 62.3274 28.5688 71.3937 32.7094C82.0788 37.5892 96.5751 26.2774 106.029 33.2493C114.515 39.5078 114.796 53.0966 113.165 63.5143C111.602 73.4975 105.733 83.1396 97.3361 88.7605C89.628 93.92 78.8069 88.7868 70.2092 92.2675C63.3434 95.0471 60.1931 103.071 53.6085 106.463C43.8735 111.478 30.5784 124.472 22.9519 116.613C14.0056 107.394 25.6429 91.7219 26.8955 78.937C27.4072 73.7146 29.4074 68.61 28.1545 63.5143C26.3026 55.9816 17.7992 50.7416 18.0574 42.9889C18.3291 34.8297 23.6164 27.446 29.5429 21.8315C36.2214 15.5045 44.7047 6.99497 53.6085 9.30923Z" fill="url(#paint3_angular_613_398)"/>
<path fill-rule="evenodd" clip-rule="evenodd" d="M58.6433 11.7246C69.8767 17.3635 60.7544 41.3373 72.3627 46.1577C86.778 52.1438 104.536 27.0479 117.273 36.0708C127.153 43.0704 109.366 58.3166 105.906 69.9204C103.521 77.9191 107.108 89.3692 100.052 93.8275C91.7816 99.0527 80.4901 88.5156 71.2758 91.8006C64.5645 94.1933 64.6755 104.798 58.6433 108.59C50.54 113.684 40.8815 119.137 31.6178 116.73C22.4928 114.359 14.8635 105.703 12.4532 96.5883C10.0676 87.5667 14.3543 77.8709 19.2398 69.9204C23.0651 63.6952 34.3196 64.1464 36.6447 57.2196C39.9464 47.3836 29.2098 36.1039 33.7264 26.7632C38.0227 17.8781 49.8229 7.29697 58.6433 11.7246Z" fill="url(#paint4_angular_613_398)"/>
</g>
<path fill-rule="evenodd" clip-rule="evenodd" d="M63.1326 23.8415C71.0644 24.8888 80.0246 21.768 86.5936 26.3353C93.1391 30.8863 91.7668 41.41 97.0223 47.4047C104.154 55.5392 122.472 56.1559 122.218 66.9709C121.961 77.9248 103.833 78.236 96.1157 86.0137C90.9234 91.2465 90.9121 100.397 84.8662 104.615C78.6985 108.917 70.5104 110.478 63.1326 109.022C56.1106 107.637 52.83 98.4736 45.8445 96.9148C34.1793 94.3117 15.8713 108.027 10.6012 97.2999C5.12477 86.1523 28.7096 79.1522 31.134 66.9709C32.8523 58.3371 20.5659 51.6543 21.4293 42.8935C22.3387 33.6652 27.365 23.482 35.7995 19.6287C44.3299 15.7316 53.8349 22.6139 63.1326 23.8415Z" stroke="url(#paint5_linear_613_398)" stroke-width="0.5"/>
<path fill-rule="evenodd" clip-rule="evenodd" d="M70.0988 25.3337C84.1154 24.5675 92.8313 -6.31875 104.217 1.89217C116.251 10.5707 93.5449 30.8498 97.5554 45.1344C100.135 54.3224 115.825 52.8477 120.808 60.9865C126.806 70.7823 136.07 86.437 127.581 94.1737C117.529 103.334 99.5851 84.874 87.581 91.2666C76.2659 97.2923 81.4283 118.786 70.0988 124.785C60.0341 130.114 43.4613 127.457 37.2227 117.93C29.8804 106.717 46.9001 89.8468 39.7844 78.4886C32.2137 66.4042 6.45864 74.3745 1.54868 60.9865C-2.50559 49.9317 17.0243 43.917 23.4985 34.0818C29.4789 24.9969 27.3786 7.51502 38.0684 5.50826C50.6233 3.15139 57.3437 26.031 70.0988 25.3337Z" stroke="url(#paint6_linear_613_398)" stroke-width="0.5"/>
<path fill-rule="evenodd" clip-rule="evenodd" d="M61.3777 9.53158C70.3321 12.4627 75.9397 20.9116 84.349 25.1607C93.4335 29.7509 107.238 26.7221 112.565 35.3953C117.852 44.0048 110.69 55.0263 108.784 64.9481C107.215 73.1109 107.676 82.2243 102.34 88.5976C97.1679 94.7749 87.2347 93.7122 80.7258 98.46C73.0988 104.023 69.9689 114.563 61.3777 118.476C51.0753 123.169 36.6053 129.983 28.2222 122.375C18.9991 114.005 27.528 98.02 25.33 85.7603C24.008 78.387 15.6106 72.0722 17.9262 64.9481C20.3977 57.3442 35.4003 58.5984 36.7216 50.7129C39.2441 35.6599 19.8602 19.7128 27.7006 6.61759C33.589 -3.21737 50.4836 5.96553 61.3777 9.53158Z" stroke="url(#paint7_linear_613_398)" stroke-width="0.5"/>
<path fill-rule="evenodd" clip-rule="evenodd" d="M53.6085 9.30923C63.255 11.8166 62.3274 28.5688 71.3937 32.7094C82.0788 37.5892 96.5751 26.2774 106.029 33.2493C114.515 39.5078 114.796 53.0966 113.165 63.5143C111.602 73.4975 105.733 83.1396 97.3361 88.7605C89.628 93.92 78.8069 88.7868 70.2092 92.2675C63.3434 95.0471 60.1931 103.071 53.6085 106.463C43.8735 111.478 30.5784 124.472 22.9519 116.613C14.0056 107.394 25.6429 91.7219 26.8955 78.937C27.4072 73.7146 29.4074 68.61 28.1545 63.5143C26.3026 55.9816 17.7992 50.7416 18.0574 42.9889C18.3291 34.8297 23.6164 27.446 29.5429 21.8315C36.2214 15.5045 44.7047 6.99497 53.6085 9.30923Z" stroke="url(#paint8_linear_613_398)" stroke-width="0.5"/>
<path fill-rule="evenodd" clip-rule="evenodd" d="M58.6433 11.7246C69.8767 17.3635 60.7544 41.3373 72.3627 46.1577C86.778 52.1438 104.536 27.0479 117.273 36.0708C127.153 43.0704 109.366 58.3166 105.906 69.9204C103.521 77.9191 107.108 89.3692 100.052 93.8275C91.7816 99.0527 80.4901 88.5156 71.2758 91.8006C64.5645 94.1933 64.6755 104.798 58.6433 108.59C50.54 113.684 40.8815 119.137 31.6178 116.73C22.4928 114.359 14.8635 105.703 12.4532 96.5883C10.0676 87.5667 14.3543 77.8709 19.2398 69.9204C23.0651 63.6952 34.3196 64.1464 36.6447 57.2196C39.9464 47.3836 29.2098 36.1039 33.7264 26.7632C38.0227 17.8781 49.8229 7.29697 58.6433 11.7246Z" stroke="url(#paint9_linear_613_398)" stroke-width="0.5"/>
<defs>
<filter id="filter0_i_613_398" x="0.75" y="0.254883" width="135.5" height="132.49" filterUnits="userSpaceOnUse" color-interpolation-filters="sRGB">
<feFlood flood-opacity="0" result="BackgroundImageFix"/>
<feBlend mode="normal" in="SourceGraphic" in2="BackgroundImageFix" result="shape"/>
<feColorMatrix in="SourceAlpha" type="matrix" values="0 0 0 0 0 0 0 0 0 0 0 0 0 0 0 0 0 0 127 0" result="hardAlpha"/>
<feOffset dx="5" dy="5"/>
<feGaussianBlur stdDeviation="5"/>
<feComposite in2="hardAlpha" operator="arithmetic" k2="-1" k3="1"/>
<feColorMatrix type="matrix" values="0 0 0 0 0.754167 0 0 0 0 0.896638 0 0 0 0 1 0 0 0 1 0"/>
<feBlend mode="normal" in2="shape" result="effect1_innerShadow_613_398"/>
</filter>
<radialGradient id="paint0_angular_613_398" cx="0" cy="0" r="1" gradientUnits="userSpaceOnUse" gradientTransform="translate(131 58.5081) rotate(-133.992) scale(123.579 126.508)">
<stop stop-color="#78B0F2"/>
<stop offset="0.147264" stop-color="#62B2F8"/>
<stop offset="0.3908" stop-color="#63B1F7"/>
<stop offset="0.934" stop-color="#4DB3FD"/>
</radialGradient>
<radialGradient id="paint1_angular_613_398" cx="0" cy="0" r="1" gradientUnits="userSpaceOnUse" gradientTransform="translate(131 58.5081) rotate(-133.992) scale(123.579 126.508)">
<stop stop-color="#78B0F2"/>
<stop offset="0.147264" stop-color="#62B2F8"/>
<stop offset="0.3908" stop-color="#63B1F7"/>
<stop offset="0.934" stop-color="#4DB3FD"/>
</radialGradient>
<radialGradient id="paint2_angular_613_398" cx="0" cy="0" r="1" gradientUnits="userSpaceOnUse" gradientTransform="translate(131 58.5081) rotate(-133.992) scale(123.579 126.508)">
<stop stop-color="#78B0F2"/>
<stop offset="0.147264" stop-color="#62B2F8"/>
<stop offset="0.3908" stop-color="#63B1F7"/>
<stop offset="0.934" stop-color="#4DB3FD"/>
</radialGradient>
<radialGradient id="paint3_angular_613_398" cx="0" cy="0" r="1" gradientUnits="userSpaceOnUse" gradientTransform="translate(131 58.5081) rotate(-133.992) scale(123.579 126.508)">
<stop stop-color="#78B0F2"/>
<stop offset="0.147264" stop-color="#62B2F8"/>
<stop offset="0.3908" stop-color="#63B1F7"/>
<stop offset="0.934" stop-color="#4DB3FD"/>
</radialGradient>
<radialGradient id="paint4_angular_613_398" cx="0" cy="0" r="1" gradientUnits="userSpaceOnUse" gradientTransform="translate(131 58.5081) rotate(-133.992) scale(123.579 126.508)">
<stop stop-color="#78B0F2"/>
<stop offset="0.147264" stop-color="#62B2F8"/>
<stop offset="0.3908" stop-color="#63B1F7"/>
<stop offset="0.934" stop-color="#4DB3FD"/>
</radialGradient>
<linearGradient id="paint5_linear_613_398" x1="95.1985" y1="80.546" x2="48.3547" y2="18.5747" gradientUnits="userSpaceOnUse">
<stop stop-color="#4D5359" stop-opacity="0"/>
<stop offset="1" stop-color="#A2CEE1"/>
</linearGradient>
<linearGradient id="paint6_linear_613_398" x1="95.1985" y1="80.546" x2="48.3547" y2="18.5747" gradientUnits="userSpaceOnUse">
<stop stop-color="#4D5359" stop-opacity="0"/>
<stop offset="1" stop-color="#A2CEE1"/>
</linearGradient>
<linearGradient id="paint7_linear_613_398" x1="95.1985" y1="80.546" x2="48.3547" y2="18.5747" gradientUnits="userSpaceOnUse">
<stop stop-color="#4D5359" stop-opacity="0"/>
<stop offset="1" stop-color="#A2CEE1"/>
</linearGradient>
<linearGradient id="paint8_linear_613_398" x1="95.1985" y1="80.546" x2="48.3547" y2="18.5747" gradientUnits="userSpaceOnUse">
<stop stop-color="#4D5359" stop-opacity="0"/>
<stop offset="1" stop-color="#A2CEE1"/>
</linearGradient>
<linearGradient id="paint9_linear_613_398" x1="95.1985" y1="80.546" x2="48.3547" y2="18.5747" gradientUnits="userSpaceOnUse">
<stop stop-color="#4D5359" stop-opacity="0"/>
<stop offset="1" stop-color="#A2CEE1"/>
</linearGradient>
</defs>
</svg>
