<svg width="23" height="16" viewBox="0 0 23 16" fill="none" xmlns="http://www.w3.org/2000/svg">
<path d="M11.8736 12.1808C13.1123 12.1808 14.1651 11.7433 15.0322 10.8683C15.8992 9.99329 16.3327 8.93079 16.3327 7.68079C16.3327 6.43079 15.8992 5.36829 15.0322 4.49329C14.1651 3.61829 13.1123 3.18079 11.8736 3.18079C10.635 3.18079 9.58216 3.61829 8.71511 4.49329C7.84806 5.36829 7.41454 6.43079 7.41454 7.68079C7.41454 8.93079 7.84806 9.99329 8.71511 10.8683C9.58216 11.7433 10.635 12.1808 11.8736 12.1808ZM11.8736 10.3808C11.1305 10.3808 10.4987 10.1183 9.97852 9.59329C9.45829 9.06829 9.19818 8.43079 9.19818 7.68079C9.19818 6.93079 9.45829 6.29329 9.97852 5.76829C10.4987 5.24329 11.1305 4.98079 11.8736 4.98079C12.6168 4.98079 13.2485 5.24329 13.7687 5.76829C14.289 6.29329 14.5491 6.93079 14.5491 7.68079C14.5491 8.43079 14.289 9.06829 13.7687 9.59329C13.2485 10.1183 12.6168 10.3808 11.8736 10.3808ZM11.8736 15.1808C9.46242 15.1808 7.2659 14.5016 5.28409 13.1433C3.30227 11.785 1.86545 9.96412 0.973633 7.68079C1.86545 5.39745 3.30227 3.57662 5.28409 2.21829C7.2659 0.859953 9.46242 0.180786 11.8736 0.180786C14.2848 0.180786 16.4814 0.859953 18.4632 2.21829C20.445 3.57662 21.8818 5.39745 22.7736 7.68079C21.8818 9.96412 20.445 11.785 18.4632 13.1433C16.4814 14.5016 14.2848 15.1808 11.8736 15.1808ZM11.8736 13.1808C13.7398 13.1808 15.4533 12.685 17.014 11.6933C18.5747 10.7016 19.7679 9.36412 20.5936 7.68079C19.7679 5.99745 18.5747 4.65995 17.014 3.66829C15.4533 2.67662 13.7398 2.18079 11.8736 2.18079C10.0074 2.18079 8.29397 2.67662 6.73329 3.66829C5.17261 4.65995 3.97939 5.99745 3.15363 7.68079C3.97939 9.36412 5.17261 10.7016 6.73329 11.6933C8.29397 12.685 10.0074 13.1808 11.8736 13.1808Z" fill="white"/>
</svg>
